<svg width="146" height="111" viewBox="0 0 146 111" fill="none" xmlns="http://www.w3.org/2000/svg">
<g clip-path="url(#clip0)">
<path opacity="0.1" d="M72.3195 111C102.989 111 127.851 109.197 127.851 106.974C127.851 104.75 102.989 102.948 72.3195 102.948C41.6504 102.948 16.7881 104.75 16.7881 106.974C16.7881 109.197 41.6504 111 72.3195 111Z" fill="#FFC107"/>
<path opacity="0.1" d="M144.226 88.4914C143.621 89.4252 142.878 90.262 142.024 90.9732C141.789 91.1679 141.545 91.3574 141.297 91.5341C138.125 93.8187 133.878 94.8227 129.751 95.4733C121.741 96.7359 113.562 96.9818 105.419 97.2226C98.562 97.4275 91.7017 97.6324 84.8426 97.7681C75.0387 97.9653 65.2335 98.0242 55.4449 97.7681C50.094 97.6272 44.7475 97.3788 39.4051 97.0228C29.4926 96.3428 19.3247 95.1416 10.6957 90.9463C9.11669 90.1896 7.60769 89.2939 6.18643 88.2699C3.84303 86.5577 1.91341 84.4857 0.88155 82.0321C-0.778619 78.0878 0.0987161 73.6557 1.99514 69.7882C3.14449 67.4499 4.63736 65.26 6.18643 63.0894C7.10335 61.8011 8.04071 60.5205 8.93209 59.2207C9.02531 59.0927 9.11598 58.9556 9.20538 58.8225C9.37778 58.5663 9.54891 58.3102 9.7162 58.0541C10.416 56.9745 11.0788 55.8604 11.6867 54.7245C12.2926 53.5914 12.8404 52.428 13.3277 51.2387C13.7747 50.1521 14.1585 49.0404 14.4771 47.9092C14.689 47.1472 14.8678 46.3827 15.0058 45.6182C15.7605 41.4549 15.362 37.2943 13.1272 33.528C13.1055 33.4909 13.0825 33.4512 13.0595 33.414L13.0314 33.3692C12.4006 32.3306 11.6394 31.3523 10.8911 30.37C9.99715 29.1919 9.11726 28.0061 8.49789 26.7088C6.86837 23.2806 7.22084 19.426 7.81339 15.7648C8.60389 10.8985 10.0751 5.64802 14.6303 2.61428C19.3618 -0.543685 26.0791 -0.38361 31.9522 0.745881C41.0781 2.49646 49.5053 6.16795 58.0143 9.48087C66.5233 12.7938 75.432 15.8237 84.7877 16.1477C93.049 16.4358 102.684 14.2844 108.167 8.68817C113.492 3.25458 123.503 2.84094 130.721 6.12697C137.607 9.25804 142.06 15.8864 141.725 22.5046C141.237 32.1437 131.974 39.5366 126.446 47.9706C126.199 48.3471 125.957 48.7326 125.727 49.1232C123.557 52.8023 122.219 57.027 123.821 60.8573C125.969 65.9887 132.346 68.4923 137.725 71.7155C140.323 73.2715 142.693 74.9965 144.226 77.2708C144.283 77.3528 144.335 77.4334 144.388 77.5141C146.55 80.8693 146.386 85.1542 144.226 88.4914Z" fill="#FFC107"/>
<path opacity="0.3" d="M9.71455 58.0509C10.4144 56.9714 11.0772 55.8573 11.685 54.7214C12.2913 53.5891 12.8395 52.4265 13.3273 51.2381C13.7743 50.1515 14.1581 49.0398 14.4767 47.9086C14.6887 47.1466 14.8675 46.3821 15.0054 45.6176C15.7601 41.4543 15.3617 37.2937 13.1268 33.5274C13.1051 33.4903 13.0821 33.4506 13.0591 33.4135L10.8882 30.3695H26.9982V41.0958H31.4794V73.2709H37.2618V62.834H44.2001V73.2709H49.9787V55.4411H50.2674V46.1644H55.7587V55.4411H68.4794V69.3561H75.5632V65.0021H79.9052V69.3561H86.9877V28.1899H96.2387V21.6665H97.8286V28.1899H100.43V41.0907H105.057V30.3643H108.959V19.3512H117.053V30.3643H120.957V41.0907H125.727V49.1213C123.556 52.8005 122.219 57.0252 123.82 60.8555C125.968 65.9868 132.346 68.4904 137.725 71.7137C140.323 73.2709 142.693 74.9959 144.225 77.2702V88.4947C143.62 89.4271 142.878 90.2626 142.024 90.9727C141.789 91.1673 141.545 91.3568 141.297 91.5336C138.125 93.8182 133.877 94.8221 129.751 95.4727C121.74 96.7354 113.562 96.9812 105.418 97.222C98.5616 97.4269 91.7013 97.6318 84.8423 97.7675H55.442C50.0911 97.6267 44.7445 97.3782 39.4022 97.0222C29.4897 96.3422 19.3218 95.141 10.6928 90.9458C9.11376 90.189 7.60476 89.2933 6.18349 88.2693V63.0888C7.10042 61.8005 8.03777 60.5199 8.92916 59.2201L9.71455 58.0509Z" fill="#FFC107"/>
<path opacity="0.4" d="M15.0003 45.6125V47.9035H14.4767C14.6836 47.1415 14.8598 46.377 15.0003 45.6125Z" fill="white"/>
<path opacity="0.4" d="M22.517 47.9035H28.5881V44.4241H22.517V47.9035Z" fill="white"/>
<path opacity="0.4" d="M15.0003 51.2382V54.7163H11.6799C12.2878 53.5858 12.8377 52.4249 13.3273 51.2382H15.0003Z" fill="white"/>
<path opacity="0.4" d="M22.517 54.7163H28.5881V51.2369H22.517V54.7163Z" fill="white"/>
<path opacity="0.4" d="M9.71454 58.0497H15.0003V61.529H8.92915V59.2201L9.71454 58.0497Z" fill="white"/>
<path opacity="0.4" d="M22.517 61.5291H28.5881V58.0497H22.517V61.5291Z" fill="white"/>
<path opacity="0.4" d="M15.0003 64.8638H8.92915V68.3431H15.0003V64.8638Z" fill="white"/>
<path opacity="0.4" d="M22.517 68.3419H28.5881V64.8625H22.517V68.3419Z" fill="white"/>
<path opacity="0.4" d="M15.0003 71.6766H8.92915V75.156H15.0003V71.6766Z" fill="white"/>
<path opacity="0.4" d="M22.517 75.1547H28.5881V71.6753H22.517V75.1547Z" fill="white"/>
<path opacity="0.4" d="M15.0003 78.4894H8.92915V81.9688H15.0003V78.4894Z" fill="white"/>
<path opacity="0.4" d="M22.517 81.9675H28.5881V78.4881H22.517V81.9675Z" fill="white"/>
<path opacity="0.4" d="M15.0003 85.3022H8.92915V88.7815H15.0003V85.3022Z" fill="white"/>
<path opacity="0.4" d="M22.517 88.7803H28.5881V85.3009H22.517V88.7803Z" fill="white"/>
<path opacity="0.4" d="M47.8141 76.749H33.6478V78.4881H47.8141V76.749Z" fill="white"/>
<path opacity="0.4" d="M47.8141 79.3589H33.6478V81.0979H47.8141V79.3589Z" fill="white"/>
<path opacity="0.4" d="M47.8141 81.9675H33.6478V83.7065H47.8141V81.9675Z" fill="white"/>
<path opacity="0.4" d="M84.8193 77.6198H70.6529V79.3589H84.8193V77.6198Z" fill="white"/>
<path opacity="0.4" d="M84.8193 80.2284H70.6529V81.9675H84.8193V80.2284Z" fill="white"/>
<path opacity="0.4" d="M84.8193 82.837H70.6529V84.5761H84.8193V82.837Z" fill="white"/>
<path opacity="0.4" d="M47.8141 84.5773H33.6478V86.3164H47.8141V84.5773Z" fill="white"/>
<path opacity="0.4" d="M47.8141 87.1859H33.6478V88.925H47.8141V87.1859Z" fill="white"/>
<path opacity="0.4" d="M47.8141 89.7958H33.6478V91.5349H47.8141V89.7958Z" fill="white"/>
<path opacity="0.4" d="M56.9195 58.7758H53.0168V63.8495H56.9195V58.7758Z" fill="white"/>
<path opacity="0.4" d="M61.5463 63.8482H65.4489V58.7745H61.5463V63.8482Z" fill="white"/>
<path opacity="0.4" d="M56.9195 66.8922H53.0168V71.966H56.9195V66.8922Z" fill="white"/>
<path opacity="0.4" d="M61.5463 71.966H65.4489V66.8922H61.5463V71.966Z" fill="white"/>
<path opacity="0.4" d="M56.9195 75.0099H53.0168V80.0837H56.9195V75.0099Z" fill="white"/>
<path opacity="0.4" d="M61.5463 80.0837H65.4489V75.01H61.5463V80.0837Z" fill="white"/>
<path opacity="0.4" d="M56.9195 83.1277H53.0168V88.2014H56.9195V83.1277Z" fill="white"/>
<path opacity="0.4" d="M61.5463 88.2014H65.4489V83.1277H61.5463V88.2014Z" fill="white"/>
<path opacity="0.4" d="M92.1904 31.5246H86.9864V38.1927H92.1904V31.5246Z" fill="white"/>
<path opacity="0.4" d="M92.1904 41.0907H86.9864V47.7588H92.1904V41.0907Z" fill="white"/>
<path opacity="0.4" d="M92.1904 50.6581H86.9864V57.3261H92.1904V50.6581Z" fill="white"/>
<path opacity="0.4" d="M92.1904 60.2254H86.9864V66.8935H92.1904V60.2254Z" fill="white"/>
<path opacity="0.4" d="M92.1904 69.7915H86.9864V76.4596H92.1904V69.7915Z" fill="white"/>
<path opacity="0.4" d="M92.1904 79.3589H86.9864V86.027H92.1904V79.3589Z" fill="white"/>
<path opacity="0.4" d="M122.764 45.1502H103.394V50.8028H122.764V45.1502Z" fill="white"/>
<path opacity="0.4" d="M122.836 57.3261H103.466V62.9787H122.836V57.3261Z" fill="white"/>
<path opacity="0.4" d="M122.909 69.5021H103.538V75.1547H122.909V69.5021Z" fill="white"/>
<path opacity="0.4" d="M122.98 81.6781H103.61V87.3306H122.98V81.6781Z" fill="white"/>
<path opacity="0.4" d="M13.1217 33.4083V33.5223C13.1 33.4852 13.077 33.4455 13.054 33.4083H13.1217Z" fill="white"/>
<path opacity="0.4" d="M144.225 77.2702V79.3627H137.725V71.7175C140.323 73.2709 142.693 74.9959 144.225 77.2702Z" fill="white"/>
<path opacity="0.4" d="M144.225 83.1277V88.4909C143.62 89.4247 142.878 90.2614 142.024 90.9727C141.789 91.1673 141.545 91.3569 141.297 91.5336H137.721V83.1277H144.225Z" fill="white"/>
<path opacity="0.1" d="M44.444 26.26H43.4492C43.6337 26.26 43.8108 26.1865 43.9413 26.0556C44.0718 25.9247 44.1452 25.7472 44.1452 25.5621C44.1452 25.377 44.0718 25.1995 43.9413 25.0686C43.8108 24.9377 43.6337 24.8642 43.4492 24.8642H35.3922C35.2076 24.8642 35.0306 24.9377 34.9001 25.0686C34.7696 25.1995 34.6962 25.377 34.6962 25.5621C34.6962 25.7472 34.7696 25.9247 34.9001 26.0556C35.0306 26.1865 35.2076 26.26 35.3922 26.26H36.3871C36.2075 26.2677 36.0378 26.3447 35.9134 26.4749C35.789 26.605 35.7196 26.7783 35.7196 26.9586C35.7196 27.1388 35.789 27.3121 35.9134 27.4423C36.0378 27.5725 36.2075 27.6494 36.3871 27.6572H34.9951C34.8105 27.6572 34.6334 27.7307 34.5029 27.8616C34.3724 27.9925 34.2991 28.17 34.2991 28.3551C34.2991 28.5402 34.3724 28.7177 34.5029 28.8486C34.6334 28.9795 34.8105 29.053 34.9951 29.053H43.0507C43.2353 29.053 43.4123 28.9795 43.5429 28.8486C43.6734 28.7177 43.7467 28.5402 43.7467 28.3551C43.7467 28.17 43.6734 27.9925 43.5429 27.8616C43.4123 27.7307 43.2353 27.6572 43.0507 27.6572H44.444C44.6236 27.6494 44.7933 27.5725 44.9176 27.4423C45.042 27.3121 45.1114 27.1388 45.1114 26.9586C45.1114 26.7783 45.042 26.605 44.9176 26.4749C44.7933 26.3447 44.6236 26.2677 44.444 26.26Z" fill="#FFC107"/>
<path opacity="0.1" d="M80.0035 43.7991H79.0087C79.1933 43.7991 79.3703 43.7256 79.5008 43.5947C79.6313 43.4638 79.7047 43.2863 79.7047 43.1012C79.7047 42.9161 79.6313 42.7386 79.5008 42.6077C79.3703 42.4768 79.1933 42.4033 79.0087 42.4033H70.9518C70.7672 42.4033 70.5901 42.4768 70.4596 42.6077C70.3291 42.7386 70.2558 42.9161 70.2558 43.1012C70.2558 43.2863 70.3291 43.4638 70.4596 43.5947C70.5901 43.7256 70.7672 43.7991 70.9518 43.7991H71.944C71.7644 43.8069 71.5947 43.8838 71.4704 44.014C71.346 44.1442 71.2766 44.3175 71.2766 44.4977C71.2766 44.678 71.346 44.8513 71.4704 44.9814C71.5947 45.1116 71.7644 45.1886 71.944 45.1963H70.552C70.4606 45.1963 70.3701 45.2143 70.2857 45.2494C70.2013 45.2845 70.1245 45.3359 70.0599 45.4007C69.9953 45.4655 69.944 45.5425 69.909 45.6271C69.8741 45.7118 69.856 45.8026 69.856 45.8942C69.856 45.9859 69.8741 46.0766 69.909 46.1613C69.944 46.246 69.9953 46.3229 70.0599 46.3877C70.1245 46.4525 70.2013 46.5039 70.2857 46.539C70.3701 46.5741 70.4606 46.5921 70.552 46.5921H78.6102C78.7948 46.5921 78.9719 46.5186 79.1024 46.3877C79.2329 46.2568 79.3062 46.0793 79.3062 45.8942C79.3062 45.7091 79.2329 45.5316 79.1024 45.4007C78.9719 45.2698 78.7948 45.1963 78.6102 45.1963H80.0035C80.1831 45.1886 80.3528 45.1116 80.4772 44.9814C80.6015 44.8513 80.6709 44.678 80.6709 44.4977C80.6709 44.3175 80.6015 44.1442 80.4772 44.014C80.3528 43.8838 80.1831 43.8069 80.0035 43.7991Z" fill="#FFC107"/>
<path opacity="0.1" d="M140.57 20.8969H139.575C139.76 20.8969 139.937 20.8233 140.068 20.6924C140.198 20.5616 140.271 20.384 140.271 20.1989C140.271 20.0138 140.198 19.8363 140.068 19.7054C139.937 19.5745 139.76 19.501 139.575 19.501H131.519C131.334 19.501 131.157 19.5745 131.026 19.7054C130.896 19.8363 130.823 20.0138 130.823 20.1989C130.823 20.384 130.896 20.5616 131.026 20.6924C131.157 20.8233 131.334 20.8969 131.519 20.8969H132.513C132.329 20.8969 132.152 20.9704 132.021 21.1013C131.891 21.2322 131.817 21.4097 131.817 21.5948C131.817 21.7799 131.891 21.9574 132.021 22.0883C132.152 22.2192 132.329 22.2927 132.513 22.2927H131.121C130.942 22.3004 130.772 22.3774 130.648 22.5076C130.523 22.6377 130.454 22.811 130.454 22.9913C130.454 23.1716 130.523 23.3448 130.648 23.475C130.772 23.6052 130.942 23.6821 131.121 23.6899H139.177C139.271 23.6939 139.365 23.6788 139.453 23.6455C139.541 23.6122 139.621 23.5614 139.689 23.4962C139.757 23.4309 139.811 23.3525 139.848 23.2658C139.885 23.179 139.904 23.0856 139.904 22.9913C139.904 22.8969 139.885 22.8036 139.848 22.7168C139.811 22.63 139.757 22.5517 139.689 22.4864C139.621 22.4211 139.541 22.3703 139.453 22.337C139.365 22.3038 139.271 22.2887 139.177 22.2927H140.57C140.755 22.2927 140.932 22.2192 141.062 22.0883C141.193 21.9574 141.266 21.7799 141.266 21.5948C141.266 21.4097 141.193 21.2322 141.062 21.1013C140.932 20.9704 140.755 20.8969 140.57 20.8969Z" fill="#FFC107"/>
<path d="M129.008 55.281L129.016 55.2695L128.985 55.249L128.922 55.2067C128.927 55.2094 128.931 55.2129 128.934 55.217C128.879 55.1849 128.814 55.1745 128.752 55.1878C128.69 55.2011 128.635 55.237 128.598 55.2887L128.56 55.3412L126.772 57.9152L126.459 58.3673C125.519 58.083 123.992 59.2791 123.216 59.9642L123.081 60.0858C123.02 59.9475 122.984 59.8604 122.984 59.8604C122.946 60.2805 121.463 60.9118 121.117 61.141C120.961 61.2351 120.787 61.2945 120.606 61.3152C120.655 59.7132 119.421 58.0279 119.421 58.0279L116.406 54.1759C116.295 53.4795 116.402 52.7656 116.714 52.1333C116.738 52.0834 116.765 52.0334 116.793 51.9835C116.835 51.9835 116.88 51.9835 116.921 51.9835H116.937C117.183 51.9832 117.429 51.9614 117.671 51.9182C118.559 51.7603 119.368 51.308 119.969 50.6339C120.569 49.9597 120.926 49.1027 120.983 48.2006C121.287 48.1225 121.545 47.8394 121.501 47.5142C121.513 47.4524 121.513 47.389 121.501 47.3272C121.493 47.2883 121.482 47.2501 121.467 47.2132C121.381 46.9942 121.197 46.8175 121.065 46.6177C120.878 46.325 120.779 45.9853 120.777 45.6381C120.789 45.3348 120.836 45.0339 120.918 44.7417C120.979 44.5673 121.008 44.3834 121.003 44.1987V44.1615C121.006 44.1132 121.003 44.0648 120.997 44.0168C120.991 43.9825 120.983 43.9487 120.973 43.9157C120.898 43.7096 120.756 43.5352 120.569 43.4214C120.091 43.1089 119.48 43.1038 118.943 42.9091C118.164 42.6235 117.461 41.9179 116.645 42.0883C116.2 42.1805 115.859 42.5224 115.475 42.7631C115.051 43.0292 114.564 43.1776 114.064 43.1934C113.644 43.2062 113.218 43.1243 112.805 43.1934C112.73 43.2067 112.657 43.2264 112.586 43.2523C112.234 43.1324 111.865 43.0739 111.493 43.0794C111.128 43.07 110.769 43.1694 110.461 43.365C109.902 43.7556 109.754 44.5176 109.761 45.195C109.761 45.2005 109.761 45.2061 109.761 45.2116C109.761 45.2565 109.761 45.3 109.761 45.3397C109.761 45.665 109.793 45.9954 109.8 46.3206C109.803 46.6242 109.76 46.9265 109.672 47.2171C109.417 48.0213 108.677 48.636 108.529 49.4696C108.504 49.6133 108.495 49.7594 108.503 49.905C108.493 50.3763 108.644 50.8489 108.783 51.306C109.072 52.2511 109.294 53.2551 109.302 54.236C109.296 54.8453 109.175 55.448 108.945 56.0122C108.876 56.1772 108.791 56.3346 108.69 56.4822C108.657 56.5283 108.622 56.5744 108.585 56.618L108.571 56.6346C108.539 56.6717 108.505 56.7063 108.47 56.7396L108.442 56.7665C108.409 56.7956 108.375 56.823 108.339 56.8485L108.304 56.8741C108.256 56.9066 108.206 56.9353 108.154 56.9599L108.409 56.9445C108.331 57.0096 108.245 57.0647 108.154 57.1084L109.51 57.029C109.513 57.0438 109.515 57.0588 109.516 57.0739C109.512 57.1076 109.506 57.141 109.497 57.1737C109.488 57.2056 109.477 57.2368 109.464 57.2672C109.464 57.2715 109.464 57.2758 109.464 57.28C109.436 57.3411 109.401 57.3983 109.359 57.4504L109.348 57.4632C109.327 57.489 109.304 57.5134 109.28 57.5362C109.257 57.5571 109.232 57.5763 109.206 57.5938L109.189 57.6066C109.162 57.6241 109.134 57.6399 109.105 57.654C109.077 57.6669 109.048 57.6781 109.018 57.6873L108.995 57.6937C108.964 57.7023 108.933 57.7083 108.901 57.7116L109.028 57.6975C109.114 57.6873 109.199 57.6757 109.284 57.6617H109.309C109.2 57.7745 109.056 57.8464 108.901 57.8653C109.193 57.8424 109.481 57.7853 109.76 57.695C109.936 58.8846 110.328 62.51 110.113 63.1798C109.881 63.8931 110.471 69.123 110.471 69.123C110.471 69.123 110.552 69.5239 110.692 70.1219C110.33 70.9812 109.916 71.9314 109.708 72.313C109.291 73.0814 109.496 76.9821 110.934 78.716C110.934 78.716 111.529 79.5574 111.372 79.8686C111.215 80.1798 111.399 80.7112 111.399 80.7112L111.626 85.7619C111.621 86.2779 111.586 86.7932 111.52 87.305C110.908 88.067 109.962 89.1773 109.517 89.354C108.829 89.6344 103.695 95.8851 103.695 95.8851C103.695 95.8851 103.736 95.9606 103.817 96.0835L103.672 96.2513L102.688 97.3962L102.61 97.4871C102.425 97.4525 101.195 97.231 100.217 97.1567L100.121 97.1503V97.1336C99.7774 97.0932 99.43 97.1023 99.0891 97.1605H99.0814C99.0173 97.1732 98.9583 97.2044 98.9115 97.2502C98.5782 97.6587 98.4007 104.089 98.4007 104.089C98.4007 104.089 98.7558 107.3 99.8591 107.485C99.9168 107.505 99.977 107.516 100.038 107.519H100.039C100.06 107.521 100.08 107.521 100.1 107.519C100.892 107.462 101.25 107.007 101.415 106.693C101.463 106.599 101.5 106.499 101.524 106.396C101.524 106.396 101.397 105.823 101.743 105.032C102.089 104.242 102.731 102.863 102.731 102.863C102.731 102.863 103.905 101.625 103.695 101.024L103.808 100.861C104.25 100.231 105.14 98.9867 105.86 98.1556L106 97.9955C106.263 98.1075 106.538 98.1875 106.819 98.2337C106.819 98.2337 107.922 97.8008 108.334 96.825C108.509 96.4127 109.193 95.6827 109.922 94.9784C109.907 95.0988 109.899 95.1666 109.899 95.1666L109.874 101.314C110.111 101.477 110.364 101.617 110.629 101.73C110.629 101.78 110.629 101.831 110.629 101.883C110.634 102.76 110.582 103.635 110.471 104.505L110.448 104.641C110.358 104.575 110.28 104.553 110.229 104.605C110.003 104.834 109.862 106.301 109.846 106.978C109.846 106.99 109.846 107.003 109.846 107.016C109.83 107.295 109.756 107.628 109.756 107.925C109.749 108.357 109.884 108.721 110.58 108.751C111.445 108.787 115.163 108.845 117.154 108.879C118.227 108.901 119.271 108.53 120.091 107.836C120.457 107.522 120.736 107.174 120.745 106.844C120.763 106.588 120.627 106.349 120.246 106.139C120.244 106.148 120.242 106.156 120.238 106.164C120.189 106.138 120.135 106.111 120.076 106.085L118.161 105.784L114.904 104.118C114.904 104.118 114.885 103.109 114.494 103.277C114.378 103.301 114.266 103.344 114.163 103.405C114.144 103.366 114.124 103.328 114.105 103.287C113.84 102.759 113.702 102.175 113.702 101.584C113.702 101.53 113.702 101.476 113.71 101.421C113.806 101.335 113.897 101.242 113.981 101.143C113.981 101.143 113.955 98.8471 114.211 98.413C114.466 97.9788 115.264 93.5902 115.264 93.5902C115.264 93.5902 115.29 92.7745 115.803 92.2891C116.316 91.8038 116.136 90.4015 116.136 90.4015C116.136 90.4015 116.854 90.0173 117.085 88.7688C117.316 87.5202 118.061 84.7886 118.061 84.7886C118.061 84.7886 119.601 80.7573 119.499 78.2064C119.397 75.6554 119.652 74.3287 119.652 74.3287L119.973 68.4008V68.3086C120.1 68.4072 120.186 68.4853 120.186 68.4853C120.186 68.4853 120.186 68.4623 120.186 68.4213L120.26 68.4853C120.26 68.4853 120.424 65.796 120.369 64.7293C121.263 64.4232 122.634 63.92 122.711 63.6638C122.827 63.2797 124.371 62.0759 124.371 62.0759C124.338 62.0696 124.306 62.0574 124.278 62.04C124.326 62.0183 124.376 61.9914 124.43 61.9632C125.438 61.4202 127.314 59.8361 126.999 58.8667L129.05 55.9085C129.115 55.8147 129.146 55.7014 129.139 55.5873C129.131 55.4733 129.085 55.3653 129.008 55.281ZM112.299 52.4048C112.249 52.4054 112.199 52.4093 112.149 52.4163C112.059 51.8884 111.931 51.3676 111.766 50.8578C111.529 50.0562 111.273 49.2494 111.235 48.4157C111.235 48.3799 111.235 48.3427 111.235 48.3069C111.239 48.0871 111.268 47.8684 111.321 47.655C111.369 47.746 111.424 47.8356 111.48 47.9201C111.809 48.417 112.192 48.8895 112.393 49.4492C112.485 49.7053 112.539 49.9832 112.679 50.2175C112.82 50.4519 113.079 50.6504 113.352 50.6081C113.447 50.593 113.535 50.5528 113.608 50.4916C113.241 51.1745 112.802 51.8159 112.299 52.4048Z" fill="url(#paint0_linear)"/>
<path d="M124.069 62.6086C123.922 62.7009 123.757 62.7635 123.585 62.793C122.947 62.811 122.436 61.0962 122.436 61.0962C122.436 61.0962 122.616 60.9131 122.902 60.657C123.749 59.9027 125.527 58.5081 126.359 59.288C127.29 60.1627 125.158 62.0183 124.069 62.6086Z" fill="#ECB4B6"/>
<path d="M114.47 103.505L112.139 106.027C112.139 106.027 109.982 106.052 110.405 104.858C110.488 104.6 110.548 104.335 110.584 104.066C110.691 103.216 110.741 102.36 110.736 101.504C110.736 100.945 110.727 100.553 110.727 100.553C110.727 100.553 114.123 99.0609 113.775 100.614C113.73 100.812 113.706 101.014 113.704 101.217C113.701 101.793 113.832 102.36 114.087 102.876C114.194 103.097 114.322 103.308 114.47 103.505Z" fill="#ECB4B6"/>
<path opacity="0.1" d="M114.47 103.505L112.139 106.027C112.139 106.027 109.982 106.052 110.405 104.858C110.488 104.6 110.548 104.335 110.584 104.066C110.892 104.304 111.335 105.008 111.335 105.008C111.335 105.008 112.821 105.443 113.23 104.139C113.46 103.409 113.82 103.047 114.094 102.871C114.199 103.094 114.325 103.306 114.47 103.505Z" fill="black"/>
<path d="M119.876 107.304C119.086 107.983 118.076 108.347 117.037 108.329C115.115 108.3 111.522 108.244 110.689 108.21C109.572 108.161 109.943 107.206 109.978 106.545C109.978 106.522 109.978 106.5 109.978 106.478C109.991 105.82 110.128 104.391 110.346 104.173C110.565 103.955 111.331 105.167 111.331 105.167C111.331 105.167 112.817 105.602 113.226 104.297C113.635 102.992 114.47 102.858 114.47 102.858C114.853 102.694 114.867 103.678 114.867 103.678L118.015 105.306L119.862 105.598C119.922 105.625 119.975 105.653 120.026 105.68C120.855 106.144 120.487 106.774 119.876 107.304Z" fill="#FFC107"/>
<path opacity="0.25" d="M114.059 104.797C114.134 104.797 114.195 104.735 114.195 104.66C114.195 104.584 114.134 104.523 114.059 104.523C113.983 104.523 113.922 104.584 113.922 104.66C113.922 104.735 113.983 104.797 114.059 104.797Z" fill="white"/>
<path opacity="0.25" d="M115.336 105.431C115.411 105.431 115.472 105.369 115.472 105.294C115.472 105.218 115.411 105.157 115.336 105.157C115.26 105.157 115.199 105.218 115.199 105.294C115.199 105.369 115.26 105.431 115.336 105.431Z" fill="white"/>
<path opacity="0.25" d="M115.993 105.726C116.069 105.726 116.13 105.665 116.13 105.589C116.13 105.514 116.069 105.452 115.993 105.452C115.918 105.452 115.857 105.514 115.857 105.589C115.857 105.665 115.918 105.726 115.993 105.726Z" fill="white"/>
<path opacity="0.25" d="M117.356 106.252C117.431 106.252 117.493 106.19 117.493 106.115C117.493 106.039 117.431 105.977 117.356 105.977C117.281 105.977 117.219 106.039 117.219 106.115C117.219 106.19 117.281 106.252 117.356 106.252Z" fill="white"/>
<path opacity="0.25" d="M116.663 106.027C116.738 106.027 116.799 105.966 116.799 105.89C116.799 105.815 116.738 105.753 116.663 105.753C116.587 105.753 116.526 105.815 116.526 105.89C116.526 105.966 116.587 106.027 116.663 106.027Z" fill="white"/>
<path d="M119.876 107.304C119.086 107.983 118.076 108.347 117.037 108.329C115.115 108.3 111.522 108.244 110.689 108.21C109.572 108.161 109.943 107.206 109.978 106.545L116.984 106.98C116.984 106.98 119.854 106.544 120.025 105.687C120.855 106.144 120.487 106.774 119.876 107.304Z" fill="#FFC107"/>
<path opacity="0.25" d="M119.876 107.276C119.085 107.952 118.075 108.314 117.037 108.293C115.115 108.265 111.522 108.21 110.689 108.174C109.572 108.125 109.943 107.17 109.978 106.509L116.984 106.943C116.984 106.943 119.854 106.506 120.025 105.65C120.855 106.116 120.487 106.746 119.876 107.276Z" fill="white"/>
<path d="M106.833 97.1656C106.575 97.376 106.339 97.6125 106.129 97.8713C105.435 98.6819 104.575 99.8946 104.149 100.508C103.984 100.746 103.883 100.892 103.883 100.892L102.953 100.754C102.953 100.754 101.95 99.2172 101.962 99.1762C101.975 99.1352 102.755 97.4858 102.755 97.4858L103.058 97.1311L104.011 96.0144L104.441 95.5098C104.441 95.5098 107.676 96.5561 106.833 97.1656Z" fill="#ECB4B6"/>
<path opacity="0.1" d="M104.149 100.508C103.984 100.746 103.883 100.892 103.883 100.892L102.953 100.754C102.953 100.754 101.95 99.2172 101.962 99.1762C101.975 99.1352 102.755 97.4858 102.755 97.4858L103.058 97.1311L103.158 97.149H103.393C102.563 98.0185 103.455 99.933 103.455 99.933C103.455 99.933 103.841 99.9715 104.149 100.508Z" fill="black"/>
<path d="M103.104 102.458C103.104 102.458 102.483 103.8 102.149 104.571C101.814 105.342 101.938 105.902 101.938 105.902C101.914 106.002 101.879 106.099 101.832 106.19C101.713 106.427 101.532 106.627 101.309 106.769C101.085 106.911 100.827 106.989 100.563 106.996C100.543 106.997 100.523 106.997 100.503 106.996C99.3777 106.966 99.0175 103.676 99.0175 103.676C99.0175 103.676 99.1899 97.4128 99.513 97.0171C99.5571 96.9717 99.6143 96.9412 99.6765 96.93C100.005 96.8731 100.34 96.8641 100.671 96.9031C101.693 96.9761 103.008 97.2284 103.008 97.2284H103.243C102.413 98.0979 103.305 100.012 103.305 100.012C103.305 100.012 103.702 100.05 104.012 100.609C104.322 101.169 103.104 102.458 103.104 102.458Z" fill="#FFC107"/>
<path opacity="0.25" d="M101.744 100.732C101.82 100.732 101.881 100.671 101.881 100.595C101.881 100.519 101.82 100.458 101.744 100.458C101.669 100.458 101.607 100.519 101.607 100.595C101.607 100.671 101.669 100.732 101.744 100.732Z" fill="white"/>
<path opacity="0.25" d="M101.676 101.817C101.752 101.817 101.813 101.755 101.813 101.68C101.813 101.604 101.752 101.543 101.676 101.543C101.601 101.543 101.54 101.604 101.54 101.68C101.54 101.755 101.601 101.817 101.676 101.817Z" fill="white"/>
<path d="M101.744 106.167C101.591 106.471 101.233 106.915 100.475 106.973H100.422C99.2921 106.943 98.932 103.653 98.932 103.653C98.932 103.653 99.1057 97.3898 99.4275 96.9941C99.4718 96.9489 99.5288 96.9185 99.5909 96.907C99.92 96.8501 100.255 96.841 100.587 96.8801C100.568 98.0045 100.516 101.565 100.587 101.918C100.659 102.271 101.295 105.219 101.744 106.167Z" fill="#FFC107"/>
<path opacity="0.25" d="M101.827 106.19C101.708 106.427 101.527 106.627 101.304 106.769C101.08 106.911 100.822 106.989 100.558 106.996C100.538 106.997 100.518 106.997 100.498 106.996C99.3675 106.966 99.0086 103.676 99.0086 103.676C99.0086 103.676 99.1823 97.4128 99.5041 97.0171C99.5484 96.972 99.6055 96.9416 99.6676 96.93C99.9966 96.8731 100.332 96.8641 100.664 96.9032C100.645 98.0275 100.591 101.588 100.664 101.941C100.736 102.294 101.376 105.242 101.827 106.19Z" fill="white"/>
<path d="M100.422 106.972C99.2921 106.943 98.932 103.653 98.932 103.653C98.932 103.653 99.1057 97.3898 99.4275 96.9941C99.4718 96.9489 99.5288 96.9185 99.5909 96.907C99.8285 97.2604 100.037 98.0429 99.8464 99.7653C99.4939 103.028 99.9191 103.233 99.9191 103.233C99.9191 103.233 100.441 105.999 100.422 106.972Z" fill="#FFC107"/>
<path opacity="0.1" d="M100.407 106.973C99.273 106.943 98.9167 103.651 98.9167 103.651C98.9167 103.651 99.0903 97.3872 99.4122 96.9915C99.4564 96.9463 99.5135 96.9159 99.5756 96.9044C99.8131 97.2579 100.02 98.0403 99.831 99.7627C99.4786 103.026 99.9038 103.231 99.9038 103.231C99.9038 103.231 100.433 105.999 100.407 106.973Z" fill="black"/>
<path opacity="0.1" d="M124.069 62.6086C123.922 62.7009 123.757 62.7635 123.585 62.793C122.947 62.811 122.436 61.0962 122.436 61.0962C122.436 61.0962 122.616 60.9131 122.902 60.657C123.1 61.1257 123.671 62.3768 124.069 62.6086Z" fill="black"/>
<path d="M120.015 61.9914C120.015 61.9914 120.536 62.0285 120.87 61.8044C121.205 61.5803 122.637 60.9656 122.674 60.5558C122.674 60.5558 123.529 62.6432 124.012 62.7175C124.012 62.7175 122.526 63.8931 122.413 64.2657C122.301 64.6384 119.402 65.5463 119.402 65.5463L120.015 61.9914Z" fill="#FF748E"/>
<path d="M120.015 61.9914C120.015 61.9914 120.536 62.0285 120.87 61.8044C121.205 61.5803 122.637 60.9656 122.674 60.5558C122.674 60.5558 123.529 62.6432 124.012 62.7175C124.012 62.7175 122.526 63.8931 122.413 64.2657C122.301 64.6384 119.402 65.5463 119.402 65.5463L120.015 61.9914Z" fill="#FFC107"/>
<path opacity="0.1" d="M106.833 97.1657C106.575 97.3761 106.339 97.6125 106.129 97.8713C105.009 97.4 104.285 96.4396 104.011 96.017L104.441 95.5124C104.441 95.5124 107.676 96.5561 106.833 97.1657Z" fill="black"/>
<path d="M112.138 86.5879C112.138 86.5879 110.319 89.021 109.655 89.2976C108.991 89.5743 104.036 95.661 104.036 95.661C104.036 95.661 105.099 97.6318 107.063 97.9481C107.063 97.9481 108.129 97.5255 108.525 96.5817C108.921 95.6379 112.043 92.9768 112.043 92.9768L112.138 86.5879Z" fill="#5E5A6B"/>
<path opacity="0.1" d="M112.138 86.5879C112.138 86.5879 110.319 89.021 109.655 89.2976C108.991 89.5743 104.036 95.661 104.036 95.661C104.036 95.661 105.099 97.6318 107.063 97.9481C107.063 97.9481 108.129 97.5255 108.525 96.5817C108.921 95.6379 112.043 92.9768 112.043 92.9768L112.138 86.5879Z" fill="black"/>
<path opacity="0.1" d="M106.629 94.7479C107.181 94.8066 107.737 94.8066 108.289 94.7479C109.27 94.6544 108.525 95.2512 106.629 94.7479Z" fill="black"/>
<path opacity="0.1" d="M106.183 95.3818C106.183 95.3818 107.484 96.1271 107.986 95.7544C108.488 95.3818 107.502 96.1143 106.183 95.3818Z" fill="black"/>
<path opacity="0.1" d="M113.774 100.621C113.73 100.817 113.706 101.017 113.704 101.217C112.699 102.132 111.489 101.85 110.733 101.516C110.733 100.956 110.724 100.564 110.724 100.564C110.724 100.564 114.121 99.0674 113.774 100.621Z" fill="black"/>
<path d="M119.798 68.1933L119.761 68.881L119.45 74.6565C119.45 74.6565 119.195 75.9487 119.301 78.4343C119.407 80.92 117.918 84.8476 117.918 84.8476C117.918 84.8476 117.199 87.5087 116.975 88.7265C116.752 89.9444 116.059 90.317 116.059 90.317C116.059 90.317 116.232 91.6847 115.737 92.156C115.241 92.6272 115.217 93.4238 115.217 93.4238C115.217 93.4238 114.451 97.6997 114.195 98.1223C113.94 98.5449 113.972 100.782 113.972 100.782C112.36 102.697 110.005 100.956 110.005 100.956L110.03 94.9656C110.03 94.9656 110.7 89.4475 111.196 88.6766C111.691 87.9056 111.691 85.7926 111.691 85.7926L111.47 80.8713C111.47 80.8713 111.294 80.3488 111.446 80.0504C111.598 79.752 111.022 78.935 111.022 78.935C109.634 77.2446 109.436 73.4412 109.838 72.6947C110.24 71.9481 111.446 68.9668 111.446 68.9668L113.106 67.9961L116.103 68.0858L119.798 68.1933Z" fill="#5E5A6B"/>
<path opacity="0.1" d="M112.746 97.4884C112.746 97.4884 113.138 98.8497 113.453 98.9982C113.769 99.1468 112.746 97.4884 112.746 97.4884Z" fill="black"/>
<path opacity="0.1" d="M113.285 92.9576C113.285 92.9576 114.306 93.7618 114.727 93.7593C115.147 93.7567 113.285 92.9576 113.285 92.9576Z" fill="black"/>
<path d="M119.402 59.3059V60.9464L118.321 60.4803L117.245 60.0141L114.903 57.7026C114.903 57.7026 113.05 56.495 112.058 55.3975C111.491 54.7701 111.204 54.1771 111.705 53.8608C111.946 53.7017 112.164 53.5099 112.353 53.291C112.851 52.7019 113.285 52.0605 113.646 51.3777L113.692 51.2945C114.175 50.4058 114.493 49.6476 114.493 49.6476C114.493 49.6476 115.852 50.0843 116.726 50.7029C116.797 50.7515 116.863 50.8027 116.927 50.8553C117.415 51.2561 117.656 51.7197 117.208 52.1832C117.092 52.3034 116.985 52.4318 116.887 52.5674C116.815 52.6677 116.749 52.7725 116.689 52.8812C116.663 52.9298 116.637 52.9785 116.613 53.0259C116.312 53.6432 116.208 54.3385 116.315 55.0172L119.402 59.3059Z" fill="#ECB4B6"/>
<path opacity="0.1" d="M117.208 52.1845C117.092 52.3047 116.985 52.433 116.887 52.5687C116.815 52.6689 116.749 52.7737 116.689 52.8824C116.663 52.9311 116.637 52.9798 116.613 53.0271C116.04 52.9954 115.481 52.837 114.976 52.5634C114.471 52.2898 114.033 51.9076 113.692 51.4443C113.675 51.423 113.66 51.4012 113.646 51.379L113.692 51.2958C114.175 50.407 114.493 49.6489 114.493 49.6489C114.493 49.6489 115.852 50.0856 116.726 50.7041C116.797 50.7528 116.863 50.804 116.927 50.8565C117.415 51.2574 117.663 51.7209 117.208 52.1845Z" fill="black"/>
<path d="M120.736 48.9689C120.737 49.4833 120.637 49.9927 120.441 50.4681C120.245 50.9434 119.957 51.3753 119.595 51.739C119.232 52.1027 118.801 52.391 118.327 52.5875C117.853 52.7839 117.345 52.8846 116.832 52.8837H116.816C116.774 52.8837 116.73 52.8837 116.688 52.8837C115.941 52.8561 115.217 52.6139 114.604 52.186C113.99 51.758 113.511 51.1623 113.225 50.4696C112.939 49.777 112.857 49.0165 112.99 48.2786C113.122 47.5407 113.463 46.8565 113.972 46.3072C114.481 45.7579 115.136 45.3667 115.86 45.18C116.584 44.9934 117.347 45.0192 118.056 45.2543C118.766 45.4895 119.394 45.9241 119.865 46.5066C120.336 47.089 120.63 47.7948 120.712 48.5399C120.728 48.6824 120.736 48.8256 120.736 48.9689Z" fill="#ECB4B6"/>
<path opacity="0.1" d="M117.345 58.6477C117.345 58.6477 119.311 59.7606 118.807 58.8219L116.241 55.0185L119.154 58.7719C119.154 58.7719 121.013 61.3331 119.997 63.0965C119.997 63.0965 119.848 64.5641 120.021 64.9111C120.195 65.2582 119.971 68.9642 119.971 68.9642C119.971 68.9642 119.278 68.3239 118.906 68.4418C118.535 68.5596 115.907 68.7901 115.907 68.7901L117.345 58.6477Z" fill="black"/>
<path opacity="0.1" d="M119.798 68.1933L119.761 68.881C119.526 68.7094 119.198 68.5173 118.98 68.5903C118.609 68.7184 115.981 68.9386 115.981 68.9386L116.102 68.0832L119.798 68.1933Z" fill="black"/>
<path d="M117.419 58.6477C117.419 58.6477 119.385 59.7606 118.881 58.8219L116.315 55.0185L119.228 58.7719C119.228 58.7719 121.088 61.3331 120.071 63.0965C120.071 63.0965 119.923 64.5641 120.095 64.9111C120.268 65.2582 120.047 68.9642 120.047 68.9642C120.047 68.9642 119.352 68.3239 118.98 68.4418C118.609 68.5596 115.981 68.7901 115.981 68.7901L117.419 58.6477Z" fill="#464353"/>
<path opacity="0.1" d="M118.47 60.5545C118.355 61.7493 117.864 63.1708 117.864 63.1708C117.864 63.1708 117.518 66.7014 117.071 67.7464C116.624 68.7914 116.823 70.232 116.576 72.8918C116.486 73.8485 116.179 74.5067 115.764 74.9511C115.082 75.681 114.103 75.8334 113.337 75.7886C113.275 75.7886 113.209 75.7809 113.155 75.7745C111.914 75.6464 110.728 69.6596 110.728 69.6596C110.728 69.6596 110.159 64.5641 110.381 63.8675C110.603 63.1708 110.159 59.1945 110.009 58.3237C109.915 57.7731 110.199 56.8715 110.419 56.2863C110.547 55.9469 110.654 55.7139 110.654 55.7139C110.654 55.7139 111.075 54.3718 111.769 53.6764C111.864 53.5779 111.979 53.4997 112.105 53.4465C112.232 53.3933 112.367 53.3661 112.504 53.3665C112.831 53.3785 113.148 53.478 113.423 53.6547L113.455 53.6764C113.455 53.6764 117.966 58.2994 118.388 59.3687C118.503 59.6658 118.514 60.0935 118.47 60.5545Z" fill="black"/>
<path d="M118.321 60.4803C118.207 61.6751 117.716 63.0965 117.716 63.0965C117.716 63.0965 117.369 66.6271 116.923 67.6708C116.477 68.7145 116.668 70.1565 116.428 72.8163C116.338 73.7742 116.03 74.4324 115.615 74.8768C114.932 75.6067 113.955 75.7591 113.189 75.7143L113.008 75.7002C111.768 75.5721 110.581 69.5853 110.581 69.5853C110.581 69.5853 110.012 64.4885 110.235 63.7932C110.459 63.0978 110.012 59.1203 109.864 58.2495C109.769 57.6988 110.053 56.7972 110.273 56.2107C110.401 55.8727 110.507 55.6396 110.507 55.6396C110.507 55.6396 110.929 54.2975 111.623 53.6009C111.719 53.5028 111.833 53.4249 111.959 53.3719C112.085 53.3189 112.221 53.2918 112.358 53.2922C112.684 53.3043 113.002 53.4038 113.277 53.5804L113.309 53.6009C113.309 53.6009 117.821 58.2251 118.241 59.2931C118.353 59.5979 118.366 60.0192 118.321 60.4803Z" fill="#FFC107"/>
<path opacity="0.1" d="M113.267 78.6789C113.267 78.6789 112.245 79.592 111.89 79.5548C111.535 79.5177 113.267 78.6789 113.267 78.6789Z" fill="black"/>
<path opacity="0.1" d="M113.539 79.5548C113.539 79.5548 112.461 80.0568 112.134 80.1311C111.807 80.2054 113.123 79.4255 113.539 79.5548Z" fill="black"/>
<path opacity="0.1" d="M117.71 65.8319C117.71 65.8319 119.309 65.8498 119.55 66.3531C119.791 66.8564 118.231 65.627 117.71 65.8319Z" fill="black"/>
<path opacity="0.1" d="M117.486 66.7078C117.486 66.7078 118.714 66.9639 119.085 67.2674C119.457 67.5709 117.486 66.7078 117.486 66.7078Z" fill="black"/>
<path opacity="0.1" d="M115.424 63.6689C115.424 63.6689 115.276 68.7209 114.727 69.374C114.177 70.0272 115.424 63.6689 115.424 63.6689Z" fill="black"/>
<path opacity="0.1" d="M114.047 77.9502C114.047 77.9502 113.026 82.4054 115.08 82.6884C117.135 82.9715 116.502 77.6173 116.502 77.6173L114.047 77.9502Z" fill="black"/>
<path d="M113.973 77.8747C113.973 77.8747 112.951 82.3312 115.005 82.6129C117.058 82.8946 116.428 77.5417 116.428 77.5417L113.973 77.8747Z" fill="#ECB4B6"/>
<path opacity="0.1" d="M115.73 59.1702C115.624 56.4925 111.888 55.9392 111.015 58.4723C111.009 58.4889 111.004 58.5056 110.998 58.5235C110.428 60.2382 110.676 64.5807 110.676 64.5807C110.676 64.5807 110.75 67.4967 111.023 68.4661C111.296 69.4355 112.064 72.2195 112.064 72.6677C112.064 73.116 112.777 74.8307 113.077 74.9549C113.377 75.0791 113.529 76.0485 113.601 76.2227C113.674 76.3969 113.899 78.6558 113.899 78.6558C113.899 78.6558 116.7 78.4817 116.749 78.0347C116.799 77.5878 116.13 75.4018 116.13 75.4018C116.13 75.4018 115.636 74.5054 115.573 73.7857C115.511 73.066 115.114 72.742 115.19 72.249C115.267 71.7559 114.967 71.5024 114.967 71.1797C114.967 70.857 114.744 69.9862 114.744 69.9862C114.744 69.9862 114.273 69.6135 114.347 69.1666C114.421 68.7196 113.678 67.8245 113.876 67.5018C114.074 67.1791 114.124 66.3838 114.124 66.3838C114.124 66.3838 114.372 62.7981 114.545 61.8338C114.719 60.8696 115.735 59.2995 115.735 59.2995C115.735 59.2995 115.733 59.2496 115.73 59.1702Z" fill="black"/>
<path opacity="0.1" d="M115.619 74.8768C114.936 75.6067 113.959 75.7591 113.193 75.7143C113.105 75.3749 112.974 74.9588 112.784 74.8794C112.484 74.7513 111.771 73.0404 111.771 72.5935C111.771 72.1466 111.005 69.3612 110.731 68.3918C110.456 67.4224 110.383 64.5065 110.383 64.5065C110.383 64.5065 110.128 60.164 110.701 58.4454C110.701 58.4275 110.712 58.4108 110.718 58.3929C111.59 55.8599 115.327 56.4144 115.433 59.0921C115.433 59.1715 115.433 59.2202 115.433 59.2202C115.433 59.2202 114.411 60.7863 114.244 61.7557C114.077 62.7252 113.821 66.3044 113.821 66.3044C113.821 66.3044 113.771 67.101 113.573 67.4237C113.375 67.7464 114.119 68.6415 114.045 69.0885C113.971 69.5354 114.441 69.9081 114.441 69.9081C114.441 69.9081 114.664 70.7776 114.664 71.1016C114.664 71.4256 114.962 71.6727 114.887 72.1709C114.813 72.669 115.211 72.9905 115.271 73.7076C115.327 74.1129 115.444 74.5072 115.619 74.8768Z" fill="black"/>
<path d="M115.581 59.0959C115.475 56.4182 111.74 55.8637 110.867 58.3967C110.867 58.4147 110.855 58.4313 110.849 58.4492C110.28 60.164 110.528 64.5065 110.528 64.5065C110.528 64.5065 110.602 67.4224 110.874 68.3918C111.146 69.3613 111.916 72.1478 111.916 72.5935C111.916 73.0391 112.627 74.7552 112.928 74.8794C113.23 75.0036 113.381 75.9743 113.453 76.1472C113.526 76.32 113.75 78.5803 113.75 78.5803C113.75 78.5803 116.551 78.4062 116.6 77.9579C116.649 77.5097 115.981 75.3237 115.981 75.3237C115.981 75.3237 115.488 74.4273 115.424 73.7076C115.36 72.9879 114.964 72.6639 115.041 72.1709C115.117 71.6779 114.817 71.4243 114.817 71.1016C114.817 70.7789 114.594 69.9081 114.594 69.9081C114.594 69.9081 114.123 69.5354 114.198 69.0885C114.273 68.6416 113.527 67.7451 113.727 67.4237C113.926 67.1023 113.974 66.3057 113.974 66.3057C113.974 66.3057 114.222 62.72 114.396 61.7558C114.569 60.7915 115.586 59.2202 115.586 59.2202C115.586 59.2202 115.585 59.1753 115.581 59.0959Z" fill="#FFC107"/>
<path opacity="0.1" d="M110.98 65.9805C111.054 65.9062 112.467 64.34 112.913 64.8996C113.359 65.4592 110.98 65.9805 110.98 65.9805Z" fill="black"/>
<path opacity="0.1" d="M111.11 67.1919C111.165 67.1368 112.522 67.0805 112.857 66.316C113.192 65.5514 111.11 67.1919 111.11 67.1919Z" fill="black"/>
<g opacity="0.1">
<path opacity="0.1" d="M109.563 53.451C109.597 53.4903 109.622 53.536 109.638 53.5855C109.665 53.5002 109.673 53.4095 109.66 53.3207C109.647 53.2318 109.614 53.1471 109.563 53.0733C109.497 52.9964 109.4 52.9516 109.34 52.8709C109.34 52.8645 109.332 52.8568 109.327 52.8492C109.294 52.9099 109.277 52.9787 109.279 53.0481C109.281 53.1176 109.302 53.1851 109.34 53.2436C109.4 53.323 109.497 53.3691 109.563 53.451Z" fill="black"/>
<path opacity="0.1" d="M111.455 48.6142C111.455 48.4721 111.461 48.3312 111.455 48.1916C111.428 47.6794 111.335 47.1671 111.313 46.6549C111.284 47.2773 111.422 47.9355 111.455 48.5643V48.6142Z" fill="black"/>
</g>
<path d="M124.611 61.5432L124.688 61.597C124.621 61.5504 124.575 61.4791 124.56 61.3988C124.545 61.3184 124.563 61.2355 124.608 61.168L128.056 56.1531C128.079 56.1199 128.109 56.0915 128.142 56.0696C128.176 56.0477 128.214 56.0327 128.254 56.0254C128.293 56.0182 128.334 56.0188 128.373 56.0273C128.413 56.0358 128.45 56.052 128.483 56.075L128.408 56.0212C128.461 56.0579 128.507 56.1049 128.542 56.1593C128.577 56.2137 128.602 56.2746 128.614 56.3385C128.626 56.4024 128.625 56.468 128.611 56.5315C128.598 56.5951 128.572 56.6553 128.535 56.7089L125.302 61.4164C125.265 61.4706 125.218 61.5169 125.163 61.5527C125.108 61.5885 125.047 61.613 124.983 61.6248C124.919 61.6366 124.853 61.6354 124.789 61.6214C124.725 61.6074 124.664 61.5808 124.611 61.5432Z" fill="#464353"/>
<path d="M128.418 56.0214L128.5 56.078L124.707 61.6L124.625 61.5433C124.576 61.5098 124.543 61.4583 124.532 61.4002C124.522 61.3421 124.534 61.2821 124.568 61.2334L128.106 56.0827C128.122 56.0578 128.143 56.0365 128.168 56.0199C128.192 56.0034 128.22 55.9919 128.249 55.9862C128.278 55.9805 128.308 55.9806 128.337 55.9867C128.366 55.9927 128.394 56.0045 128.418 56.0214Z" fill="#9F9EFF"/>
<path d="M128.02 56.794L128.004 56.7831C127.994 56.7763 127.981 56.7788 127.974 56.7887L127.689 57.2031C127.683 57.213 127.685 57.2266 127.695 57.2334L127.711 57.2443C127.721 57.2511 127.734 57.2486 127.741 57.2387L128.026 56.8243C128.032 56.8144 128.03 56.8008 128.02 56.794Z" fill="#464353"/>
<path opacity="0.1" d="M121.227 48.49C121.172 48.2223 120.953 48.0264 120.803 47.7985C120.427 47.2312 120.486 46.4807 120.661 45.8225C120.725 45.6429 120.753 45.4521 120.741 45.2616C120.716 45.1412 120.667 45.0274 120.596 44.9273C120.524 44.8272 120.433 44.7431 120.328 44.6802C119.867 44.3767 119.275 44.3728 118.758 44.1808C118.006 43.9016 117.325 43.2139 116.541 43.3804C116.112 43.4713 115.783 43.8043 115.412 44.0386C115.003 44.2973 114.532 44.4419 114.048 44.4574C113.642 44.4702 113.232 44.3908 112.833 44.4574C112.761 44.4703 112.69 44.4895 112.622 44.515C112.282 44.399 111.925 44.3418 111.566 44.346C111.214 44.3378 110.867 44.435 110.57 44.6251C110.03 45.0093 109.885 45.7457 109.894 46.4077C109.903 47.0698 110.014 47.7524 109.811 48.3824C109.556 49.1674 108.851 49.7655 108.708 50.5774C108.611 51.1293 108.792 51.6864 108.954 52.2229C109.419 53.7597 109.727 55.4654 109.11 56.9522C108.953 57.3287 108.718 57.7014 108.344 57.8742L109.654 57.7961C109.668 57.889 109.664 57.9837 109.642 58.0749C109.619 58.1661 109.579 58.2519 109.524 58.3276C109.468 58.4032 109.398 58.4672 109.318 58.5157C109.238 58.5643 109.149 58.5965 109.056 58.6106C109.387 58.5897 109.712 58.5149 110.018 58.389C110.171 58.3251 110.306 58.2247 110.412 58.0966C110.518 57.9686 110.591 57.8167 110.625 57.654C110.65 57.476 110.612 57.2903 110.662 57.1187C110.747 56.8229 111.045 56.6602 111.294 56.4707C111.932 55.9713 112.236 55.1299 112.261 54.3167C112.285 53.5035 112.07 52.7044 111.84 51.9233C111.611 51.1421 111.364 50.3571 111.33 49.5439C111.315 49.2466 111.342 48.9486 111.411 48.659C111.459 48.7474 111.511 48.8345 111.566 48.9151C111.883 49.3992 112.253 49.8589 112.447 50.4045C112.516 50.6631 112.608 50.9147 112.723 51.1562C112.858 51.3867 113.106 51.5775 113.373 51.5404C113.64 51.5032 113.834 51.2138 113.922 50.9423C114.01 50.6709 114.05 50.375 114.212 50.1432C114.524 49.7053 115.147 49.6656 115.683 49.6822C116.813 49.7181 118.373 49.8897 119.259 49.0189C119.427 48.8537 119.514 48.6014 119.77 48.6629C120.005 48.7179 120.136 49.1021 120.388 49.1879C120.799 49.3301 121.32 48.9459 121.227 48.49Z" fill="black"/>
<path d="M121.227 48.3453C121.172 48.0776 120.953 47.8804 120.803 47.6538C120.427 47.0852 120.486 46.3347 120.661 45.6778C120.725 45.4982 120.753 45.3074 120.741 45.1169C120.716 44.9965 120.667 44.8827 120.596 44.7826C120.524 44.6825 120.433 44.5984 120.328 44.5355C119.867 44.232 119.275 44.2269 118.758 44.0361C118.006 43.7569 117.325 43.0692 116.541 43.2357C116.112 43.3266 115.783 43.6596 115.412 43.8939C115.003 44.152 114.532 44.2966 114.048 44.3127C113.642 44.3255 113.232 44.2461 112.833 44.3127C112.761 44.3256 112.69 44.3448 112.622 44.3703C112.282 44.2543 111.925 44.1971 111.566 44.2013C111.214 44.1935 110.867 44.2902 110.57 44.4791C110.03 44.8633 109.885 45.601 109.894 46.263C109.903 46.9251 110.014 47.6077 109.811 48.2377C109.556 49.0227 108.851 49.6208 108.708 50.4327C108.611 50.9846 108.792 51.5417 108.954 52.0782C109.419 53.615 109.727 55.3207 109.11 56.8062C108.953 57.184 108.718 57.5567 108.344 57.7295L109.654 57.6514C109.668 57.7442 109.664 57.8388 109.642 57.9299C109.619 58.0211 109.579 58.1068 109.524 58.1824C109.468 58.2579 109.398 58.3217 109.318 58.3702C109.238 58.4186 109.149 58.4507 109.056 58.4646C109.387 58.4448 109.712 58.3703 110.018 58.2443C110.171 58.1803 110.306 58.08 110.412 57.9519C110.518 57.8239 110.591 57.6719 110.625 57.5093C110.65 57.3313 110.612 57.1456 110.662 56.974C110.747 56.6782 111.045 56.5155 111.294 56.326C111.932 55.8266 112.236 54.9852 112.261 54.172C112.285 53.3588 112.07 52.5585 111.84 51.7786C111.611 50.9987 111.364 50.2124 111.33 49.3992C111.315 49.1019 111.342 48.8039 111.411 48.5143C111.459 48.6027 111.511 48.6898 111.566 48.7704C111.883 49.2545 112.253 49.7142 112.447 50.2598C112.515 50.518 112.608 50.7693 112.723 51.0102C112.858 51.2407 113.106 51.4328 113.373 51.3944C113.64 51.356 113.834 51.0691 113.922 50.7976C114.01 50.5261 114.05 50.2303 114.212 49.9985C114.524 49.5606 115.147 49.5209 115.683 49.5375C116.813 49.5734 118.373 49.745 119.259 48.8742C119.427 48.709 119.514 48.4567 119.77 48.5182C120.005 48.5732 120.136 48.9574 120.388 49.0432C120.799 49.1854 121.32 48.8012 121.227 48.3453Z" fill="#464353"/>
<g opacity="0.1">
<path opacity="0.1" d="M109.898 46.0107C109.898 46.0961 109.898 46.1815 109.898 46.2669C109.898 46.5435 109.921 46.8239 109.931 47.1018C109.943 46.7432 109.911 46.3757 109.898 46.0107Z" fill="black"/>
<path opacity="0.1" d="M109.451 54.7201C109.486 53.6956 109.253 52.6391 108.954 51.6467C108.834 51.2912 108.749 50.925 108.699 50.553C108.644 51.0653 108.809 51.5775 108.954 52.0821C109.231 52.9366 109.398 53.8232 109.451 54.7201Z" fill="black"/>
<path opacity="0.1" d="M120.533 46.4C120.554 46.156 120.597 45.9142 120.661 45.6778C120.725 45.4982 120.753 45.3074 120.741 45.1169C120.736 45.0834 120.728 45.0504 120.717 45.0183C120.702 45.0938 120.681 45.1681 120.661 45.2424C120.553 45.6181 120.509 46.0097 120.533 46.4Z" fill="black"/>
<path opacity="0.1" d="M109.658 57.2224L108.866 57.2685C108.738 57.4678 108.559 57.6288 108.348 57.7346L109.584 57.6616C109.658 57.5281 109.684 57.373 109.658 57.2224Z" fill="black"/>
<path opacity="0.1" d="M121.192 48.2326C121.125 48.3813 121.006 48.501 120.859 48.5703C120.711 48.6395 120.544 48.6537 120.386 48.6104C120.131 48.5246 120.003 48.1404 119.768 48.0853C119.513 48.0238 119.426 48.2774 119.258 48.4426C118.373 49.3121 116.813 49.1405 115.682 49.1047C115.145 49.088 114.522 49.1277 114.211 49.5657C114.045 49.7975 114.008 50.0946 113.921 50.3661C113.834 50.6375 113.653 50.9193 113.372 50.9628C113.091 51.0064 112.861 50.813 112.722 50.5786C112.607 50.3375 112.515 50.0863 112.446 49.8282C112.252 49.2827 111.881 48.8217 111.565 48.3376C111.51 48.2556 111.457 48.1686 111.41 48.0815C111.341 48.3715 111.313 48.6699 111.328 48.9676C111.328 48.9881 111.328 49.0099 111.328 49.0304C111.338 48.8577 111.364 48.6862 111.405 48.5182C111.452 48.6065 111.505 48.6936 111.559 48.7743C111.876 49.2583 112.247 49.7181 112.441 50.2636C112.509 50.5219 112.601 50.7731 112.716 51.014C112.852 51.2445 113.1 51.4366 113.367 51.3982C113.633 51.3598 113.828 51.0729 113.916 50.8015C114.004 50.53 114.043 50.2342 114.206 50.0024C114.517 49.5644 115.14 49.5247 115.677 49.5414C116.807 49.5772 118.366 49.7488 119.252 48.878C119.421 48.7128 119.508 48.4605 119.763 48.522C119.998 48.5771 120.13 48.9612 120.381 49.047C120.794 49.1866 121.315 48.8025 121.222 48.3466C121.214 48.308 121.205 48.2699 121.192 48.2326Z" fill="black"/>
<path opacity="0.1" d="M111.298 55.8957C111.055 56.0852 110.751 56.2479 110.666 56.5437C110.616 56.7166 110.654 56.901 110.628 57.079C110.595 57.2419 110.522 57.3941 110.416 57.5224C110.31 57.6507 110.175 57.7512 110.022 57.8153C109.901 57.8709 109.775 57.9139 109.645 57.9434C109.61 58.0789 109.535 58.201 109.431 58.2945C109.327 58.3881 109.198 58.449 109.06 58.4697C109.391 58.4499 109.716 58.3755 110.022 58.2495C110.175 58.1855 110.31 58.0851 110.416 57.9571C110.521 57.829 110.594 57.6771 110.628 57.5144C110.654 57.3364 110.616 57.1507 110.666 56.9791C110.751 56.6833 111.049 56.5206 111.298 56.3311C111.936 55.8317 112.24 54.9903 112.264 54.1771C112.264 54.0555 112.264 53.9351 112.264 53.8147C112.218 54.6036 111.916 55.4116 111.298 55.8957Z" fill="black"/>
</g>
<path d="M58.1697 104.856H58.1991C58.1991 104.856 53.5098 92.1034 52.197 90.3708C52.197 90.3708 50.8216 89.5653 50.8842 88.204L49.1972 80.0876C49.1972 80.0876 49.2227 80.0632 49.2649 80.0171L49.3006 79.9774C49.3134 79.9633 49.3274 79.948 49.3415 79.93C49.5667 79.6679 49.7553 79.3762 49.9021 79.0631C49.911 79.0426 49.9213 79.0234 49.9302 79.0029C49.9929 78.8608 50.0454 78.7145 50.0873 78.5649C50.2052 78.606 50.3345 78.5991 50.4474 78.5457C50.4474 78.5457 50.4474 78.5022 50.4474 78.4241C50.4474 78.4241 50.4308 77.9438 50.4295 77.1934C50.4295 76.9834 50.4295 76.7554 50.4295 76.5134C50.4841 76.3186 50.5289 76.1211 50.5636 75.9218L50.4947 75.8897C50.4947 75.8795 50.4947 75.8705 50.501 75.8603L50.4436 75.8334C50.4895 74.0534 50.6428 71.779 51.0821 70.2295C51.0974 70.1744 51.1127 70.1206 51.1293 70.0668C51.6504 68.3752 51.6619 66.3096 51.796 64.5603C51.9013 64.7793 51.9917 65.0052 52.0667 65.2364C52.133 65.163 52.2096 65.0996 52.294 65.0482L52.8176 69.1986V74.0879C52.8176 74.0879 51.9416 80.4026 54.6923 79.227C57.4431 78.0514 55.4432 73.7204 55.4432 73.7204C55.4432 73.7204 55.4432 71.3065 55.8187 70.0681C56.0652 69.2537 55.9055 66.6105 55.7676 64.9086C56.0307 64.956 56.1929 64.9931 56.1929 64.9931C56.2539 64.7448 56.2814 64.4894 56.2746 64.2337C56.3308 61.3805 52.7767 56.7806 51.3273 55.0262C50.9124 54.3994 50.3355 53.8975 49.6582 53.574L46.878 52.2409C46.878 52.2409 45.5691 51.9143 45.0582 50.9155C45.0582 50.8988 45.0493 50.8809 45.0455 50.8629C45.1029 50.8373 45.1604 50.8104 45.2166 50.781C45.6397 50.5789 46.0113 50.2828 46.3034 49.9153C46.8959 49.17 47.1781 48.2364 47.4527 47.3272C47.7707 46.2592 48.0912 45.1668 48.0491 44.0527C48.007 42.9386 47.5383 41.7809 46.5792 41.1893C45.7632 40.6847 44.6266 40.5887 44.1209 39.7806C43.9842 39.5629 43.9012 39.3042 43.7186 39.1275C43.7201 39.0902 43.7079 39.0536 43.6844 39.0246C43.6609 38.9956 43.6277 38.9762 43.5909 38.97L42.1734 38.6959C42.1336 38.6884 42.0925 38.6967 42.0588 38.7192C42.0252 38.7418 42.0016 38.7766 41.9933 38.8163V38.8355C40.7426 38.8699 39.5146 39.179 38.3959 39.7409C37.9992 39.9323 37.6182 40.1549 37.2567 40.4068C36.7459 40.768 36.2351 41.2443 36.1636 41.8642C36.1265 42.1728 36.2019 42.4891 36.138 42.7913C35.9695 43.6007 34.875 44.127 35.0347 44.9376C35.1419 45.4883 35.7715 45.7252 36.3602 45.7264C36.2512 46.1118 36.1958 46.5104 36.1955 46.911C36.2006 47.9274 36.5556 48.9109 37.2004 49.6951C37.8451 50.4793 38.7402 51.0163 39.7342 51.2151C40.1629 51.8119 40.5385 52.4452 40.8567 53.1078C40.1365 53.7853 38.6283 55.3579 39.5529 55.8867L37.6373 60.5917L37.8237 65.4439L37.0128 66.1623L37.1903 66.3826C36.2823 67.4301 34.1778 69.7211 32.6402 70.3307C32.4198 70.4186 32.2064 70.523 32.0017 70.6431C31.7197 70.8197 31.4068 70.941 31.0796 71.0004C30.9367 71.015 30.7952 71.042 30.6569 71.0811L30.2904 70.3268C30.2265 70.1959 30.1137 70.0956 29.9764 70.0476C29.8392 69.9996 29.6886 70.0079 29.5574 70.0707L29.3326 70.1783L28.7975 70.4344L28.5753 70.5407L28.4055 70.6214C28.3409 70.6519 28.283 70.695 28.2352 70.7482C28.1873 70.8013 28.1505 70.8635 28.1267 70.931C28.103 70.9985 28.0928 71.0701 28.0968 71.1416C28.1008 71.213 28.1189 71.283 28.1501 71.3475L28.5945 72.2605C27.9623 72.8125 27.6533 73.472 28.514 74.0841C28.8481 74.3256 29.2516 74.4515 29.6634 74.4427L29.9341 74.9972C29.9978 75.128 30.1104 75.2283 30.2474 75.2763C30.3845 75.3242 30.5349 75.316 30.6659 75.2533L31.0579 75.0663L31.8241 74.7039C31.8888 74.6736 31.9468 74.6307 31.9947 74.5777C32.0426 74.5247 32.0795 74.4626 32.1033 74.3952C32.1271 74.3277 32.1372 74.2562 32.1331 74.1847C32.1291 74.1133 32.1109 74.0434 32.0796 73.9791L31.8574 73.5219C32.3538 73.1402 32.8092 72.7076 33.2161 72.2311C33.2161 72.2311 34.3565 71.5229 35.0283 71.3654C35.474 71.2604 37.0384 70.2449 38.0012 69.602L38.2758 76.7503C38.2142 76.8428 38.1432 76.9287 38.0638 77.0064L38.2796 76.8553V76.9078C38.2477 76.9437 38.2171 76.977 38.1864 77.0064L38.2796 76.9398V77.0256C38.2499 77.0626 38.2175 77.0973 38.1826 77.1294L38.2809 77.0602L38.309 77.803L38.7803 77.0346L38.8096 77.803L38.9194 77.6224C37.599 79.8442 35.8788 83.1149 34.9606 86.4073C34.9606 86.4073 33.5239 88.8827 33.7104 91.4209L31.0669 103.984L31.1179 104.003C30.261 104.614 28.4604 105.734 26.6917 105.779C26.6917 105.779 22.4404 105.651 23.6267 106.583C24.8131 107.515 35.3756 108.874 35.3756 108.874L35.7817 105.744L35.8762 105.779C35.8762 105.779 35.8762 105.761 35.8698 105.73L35.9976 105.779C35.9976 105.779 35.7421 104.231 36.6846 103.365C37.6271 102.499 39.8108 93.708 39.6218 92.3519C39.6218 92.3519 41.2999 88.1989 43.4006 84.8872L45.873 91.1763L48.6238 95.8812C48.6238 95.8812 52.2825 103.936 52.165 105.732C51.3988 106.661 50.0221 108.117 48.9992 108.075C48.9992 108.075 44.8105 108.881 47.6864 109.623C50.5623 110.366 59.0011 107.574 59.0011 107.574L58.1697 104.856ZM39.8555 76.0537L39.8811 76.0396C39.7534 76.2381 39.6116 76.4596 39.4609 76.7016L39.8555 76.0537Z" fill="url(#paint1_linear)"/>
<path d="M38.0408 77.0026C37.9374 77.0756 37.8812 77.1178 37.8812 77.1178C37.9398 77.0876 37.9936 77.0487 38.0408 77.0026Z" fill="url(#paint2_linear)"/>
<path d="M38.166 77.1255L38.0064 77.2421C38.065 77.2113 38.1188 77.172 38.166 77.1255Z" fill="url(#paint3_linear)"/>
<path d="M38.166 77.0026C38.0626 77.0756 38.0064 77.1178 38.0064 77.1178C38.065 77.0876 38.1188 77.0487 38.166 77.0026Z" fill="url(#paint4_linear)"/>
<path d="M52.4703 105.035C52.4703 105.035 50.2763 108.152 48.8141 108.09C48.8141 108.09 44.7275 108.884 47.537 109.618C50.3465 110.352 58.5695 107.601 58.5695 107.601L57.5912 104.4L52.4703 105.035Z" fill="#333333"/>
<path d="M42.6574 83.3992L45.7645 91.4055L48.4463 96.0503C48.4463 96.0503 52.1344 104.27 51.8943 105.86L57.7687 104.912C57.7687 104.912 53.1982 92.3224 51.9186 90.6115C51.9186 90.6115 50.5777 89.8163 50.6415 88.4716L48.9967 80.4717C48.9967 80.4717 50.5968 78.9235 49.7029 76.9834C49.6554 76.8804 49.6025 76.7799 49.5445 76.6824C48.3262 74.6053 43.6944 75.7655 43.6944 75.7655L42.6574 83.3992Z" fill="#535461"/>
<path opacity="0.03" d="M42.6574 83.3992L45.7645 91.4055L48.4463 96.0503C48.4463 96.0503 52.1344 104.27 51.8943 105.86L57.7687 104.912C57.7687 104.912 53.1982 92.3224 51.9186 90.6115C51.9186 90.6115 50.5777 89.8163 50.6415 88.4716L48.9967 80.4717C48.9967 80.4717 50.5968 78.9235 49.7029 76.9834C49.6554 76.8804 49.6025 76.7799 49.5445 76.6824C48.3262 74.6053 43.6944 75.7655 43.6944 75.7655L42.6574 83.3992Z" fill="black"/>
<g opacity="0.1">
<path opacity="0.1" d="M51.9224 90.6115C51.9224 90.6115 50.5815 89.8163 50.6453 88.4716L48.9967 80.4717C48.9967 80.4717 50.5968 78.9235 49.7029 76.9834C49.6554 76.8803 49.6025 76.7799 49.5445 76.6824C48.9533 75.6746 47.56 75.4287 46.2804 75.4428C47.5076 75.4543 48.7987 75.7232 49.3619 76.6824C49.42 76.7796 49.4724 76.8801 49.519 76.9834C50.4129 78.9235 48.8141 80.4717 48.8141 80.4717L50.4589 88.4781C50.3989 89.8227 51.736 90.6179 51.736 90.6179C53.013 92.3288 57.5861 104.918 57.5861 104.918L51.8943 105.828C51.8943 105.837 51.8943 105.848 51.8943 105.857L57.7687 104.909C57.7687 104.909 53.202 92.3224 51.9224 90.6115Z" fill="black"/>
</g>
<path d="M31.8701 103.69C31.8701 103.69 29.4322 105.767 27.0556 105.829C27.0556 105.829 22.9116 105.701 24.0686 106.624C25.2256 107.547 35.5276 108.884 35.5276 108.884L35.9861 105.315L31.8701 103.69Z" fill="#333333"/>
<g opacity="0.1">
<path opacity="0.1" d="M40.8299 75.2712C40.8299 75.2712 36.8072 80.9545 35.2224 86.6993C35.2224 86.6993 33.8176 89.144 34.0041 91.6501L31.4436 104.057L36.1368 105.828C36.1368 105.828 35.8928 104.3 36.8072 103.444C37.7216 102.589 39.8543 93.9104 39.6716 92.5657C39.6716 92.5657 42.5974 85.2317 45.5231 82.3593C48.4488 79.487 49.9034 78.8236 50.3338 76.3405C50.3338 76.3444 43.4504 73.0097 40.8299 75.2712Z" fill="black"/>
</g>
<path d="M40.7073 75.2712C40.7073 75.2712 36.6846 80.9545 35.1011 86.6993C35.1011 86.6993 33.6963 89.144 33.8815 91.6501L31.3274 104.057L36.0142 105.828C36.0142 105.828 35.7715 104.3 36.6846 103.444C37.5977 102.589 39.7329 93.9104 39.549 92.5657C39.549 92.5657 42.4748 85.2317 45.4005 82.3593C48.3262 79.487 49.7821 78.8236 50.2124 76.3405C50.2124 76.3444 43.3278 73.0097 40.7073 75.2712Z" fill="#535461"/>
<g opacity="0.1">
<path opacity="0.1" d="M43.3061 74.4247C46.3276 74.4606 50.0898 76.2842 50.0898 76.2842C49.6595 78.7634 48.2036 79.4268 45.2792 82.303C42.3547 85.1792 39.4277 92.5094 39.4277 92.5094C39.6103 93.854 37.4777 102.533 36.5633 103.388C35.7677 104.133 35.8494 105.387 35.8839 105.7L36.0755 105.771C36.0755 105.771 35.8315 104.244 36.7459 103.388C37.6603 102.533 39.793 93.854 39.6103 92.5094C39.6103 92.5094 42.5361 85.1754 45.4618 82.303C48.3875 79.4306 49.8434 78.7673 50.2724 76.2842C50.2724 76.2842 46.3557 74.3863 43.3061 74.4247Z" fill="black"/>
</g>
<path d="M37.719 66.4082C37.719 66.4082 34.8099 70.0412 32.8458 70.8301C32.6299 70.917 32.4208 71.0197 32.22 71.1374C31.9472 71.3112 31.6438 71.4312 31.3261 71.4909C31.091 71.513 30.861 71.5735 30.6454 71.6702C29.6238 72.1414 27.2702 73.4169 28.8244 74.5374C30.7744 75.9461 33.3949 72.7036 33.3949 72.7036C33.3949 72.7036 34.5072 72.0044 35.1624 71.8482C35.8175 71.6919 38.8186 69.5866 38.8186 69.5866L37.719 66.4082Z" fill="#ECB4B6"/>
<path d="M38.2694 65.6757L37.1111 66.7142L38.8173 68.8528L38.2694 65.6757Z" fill="#FFC107"/>
<g opacity="0.1">
<path opacity="0.1" d="M38.2694 65.6757L37.1111 66.7142L38.8173 68.8528L38.2694 65.6757Z" fill="black"/>
</g>
<path d="M41.2041 53.5125C41.2041 53.5125 38.4303 55.897 39.5925 56.5693L37.719 61.214L38.3639 78.2038L41.0087 73.8036L39.2017 64.2696C39.2017 64.2696 38.6909 58.5863 40.1697 57.2416L41.5885 54.4243L41.2041 53.5125Z" fill="#FFC107"/>
<g opacity="0.1">
<path opacity="0.1" d="M41.5706 52.6609C41.5706 52.6609 38.7969 55.0454 39.9577 55.7177L38.0868 60.3663L38.7317 77.356L41.3765 72.9559L39.5707 63.418C39.5707 63.418 39.0599 57.7347 40.5375 56.39L41.9576 53.5727L41.5706 52.6609Z" fill="black"/>
</g>
<path d="M39.0625 51.0076C39.0625 51.0076 41.3178 53.7571 41.2565 55.3463C41.1952 56.9355 45.5231 52.5969 45.5231 52.5969C45.5231 52.5969 43.877 50.5799 44.3035 48.44C44.73 46.3002 39.0625 51.0076 39.0625 51.0076Z" fill="#ECB4B6"/>
<path d="M51.9224 64.8202L52.5328 69.7147V74.5426C52.5328 74.5426 51.6798 80.7765 54.3616 79.615C57.0434 78.4535 55.0869 74.1712 55.0869 74.1712C55.0869 74.1712 55.0869 71.7867 55.4535 70.565C55.82 69.3433 55.2708 63.9635 55.2708 63.9635L51.9224 64.8202Z" fill="#ECB4B6"/>
<path d="M43.5718 53.2692C43.5718 53.2692 41.9333 54.8597 41.0738 54.3078L39.9041 57.2237C39.189 59.0072 38.8646 60.924 38.9527 62.8443L39.3664 73.8651L41.1952 73.6205L41.8056 63.1695L42.72 56.8139L43.5718 53.2692Z" fill="#F2F2F2"/>
<g opacity="0.1">
<path opacity="0.1" d="M44.9433 51.5878C44.9433 51.5878 42.78 53.0848 42.1708 54.3692C42.1708 54.3692 42.1095 55.7779 41.6217 56.3862C41.1339 56.9945 40.6473 60.0525 40.5247 63.7202C40.4021 67.3878 39.8543 72.2759 39.8543 72.2759C39.8543 72.2759 38.9399 77.0436 37.9655 77.5264C37.9655 77.5264 42.4748 74.1046 44.6687 75.2661C46.8627 76.4276 49.3619 79.236 50.0937 78.8108C50.0937 78.8108 49.9174 73.454 50.7169 70.597C50.7322 70.5432 50.7475 70.4895 50.7641 70.437C51.6172 67.626 51.0693 63.7778 52.0412 62.1258C52.0412 62.1258 52.0412 59.1382 51.4793 56.9074C51.3337 56.3377 51.0657 55.8069 50.694 55.3521C50.3223 54.8973 49.8558 54.5295 49.3274 54.2745L46.6201 52.9631C46.6201 52.9631 45.1872 52.7493 44.9433 51.5878Z" fill="black"/>
</g>
<g opacity="0.1">
<path opacity="0.1" d="M44.9433 51.5878C44.9433 51.5878 42.9 53.2077 42.2921 54.4909C42.2921 54.4909 42.2308 55.8996 41.7443 56.5078C41.2577 57.1161 40.7686 60.1755 40.6473 63.8418C40.526 67.5082 39.9769 72.4039 39.9769 72.4039C39.9769 72.4039 39.0625 77.1703 38.0868 77.6544C38.0868 77.6544 42.5974 74.2314 44.7913 75.3929C46.9853 76.5544 49.4845 79.3627 50.215 78.9376C50.215 78.9376 50.04 73.5821 50.8395 70.7251C50.8548 70.67 50.8701 70.6175 50.8854 70.565C51.7398 67.7477 51.1906 63.9059 52.1625 62.2526C52.1625 62.2526 52.1625 59.265 51.5993 57.0354C51.4542 56.4656 51.1865 55.9345 50.815 55.4795C50.4435 55.0244 49.9772 54.6564 49.4487 54.4013L46.7376 53.0848C46.7376 53.0848 45.1872 52.7493 44.9433 51.5878Z" fill="black"/>
</g>
<path d="M44.9127 51.557C44.9127 51.557 42.9013 53.0848 42.2921 54.3744C42.2921 54.3744 42.2308 55.783 41.7443 56.3913C41.2577 56.9996 40.7686 60.0577 40.6473 63.7253C40.526 67.393 39.9769 72.2759 39.9769 72.2759C39.9769 72.2759 39.0625 77.0436 38.0868 77.5264C38.0868 77.5264 42.5974 74.1046 44.7913 75.2661C46.9853 76.4276 49.4845 79.236 50.215 78.8108C50.215 78.8108 50.04 73.4541 50.8395 70.597L50.8854 70.437C51.7398 67.626 51.1906 63.7778 52.1625 62.1258C52.1625 62.1258 52.1625 59.1382 51.5993 56.9074C51.4542 56.3377 51.1865 55.8068 50.815 55.352C50.4435 54.8971 49.9771 54.5293 49.4487 54.2745L46.7376 52.958C46.7376 52.958 45.3698 52.6263 44.9127 51.557Z" fill="#FFC107"/>
<g opacity="0.1">
<path opacity="0.1" d="M50.4896 55.1325C50.4896 55.1325 56.6756 62.1911 55.8225 65.5527C55.8225 65.5527 52.6529 64.8202 51.7998 65.7973C51.7998 65.7973 51.1294 63.5358 49.118 62.2526C47.1066 60.9694 45.2536 52.7493 50.4896 55.1325Z" fill="black"/>
</g>
<path d="M50.4896 55.0108C50.4896 55.0108 56.6756 62.0695 55.8225 65.4311C55.8225 65.4311 52.6529 64.6973 51.7998 65.6757C51.7998 65.6757 51.1294 63.4141 49.118 62.131C47.1066 60.8478 45.2536 52.6263 50.4896 55.0108Z" fill="#FFC107"/>
<g opacity="0.1">
<path opacity="0.1" d="M44.4555 49.8154C44.3597 49.3224 44.4402 49.2852 44.5474 48.7461C44.974 46.6075 39.3115 51.3073 39.3115 51.3073C39.3115 51.3073 39.6269 51.6915 40.0177 52.2575C40.3064 52.3173 40.6003 52.3473 40.8951 52.3472C42.4441 52.3523 43.6918 51.0409 44.4555 49.8154Z" fill="black"/>
</g>
<path d="M40.646 52.0449C43.0356 52.0449 44.9727 50.1024 44.9727 47.7063C44.9727 45.3101 43.0356 43.3676 40.646 43.3676C38.2565 43.3676 36.3194 45.3101 36.3194 47.7063C36.3194 50.1024 38.2565 52.0449 40.646 52.0449Z" fill="#ECB4B6"/>
<g opacity="0.1">
<path opacity="0.1" d="M36.7587 46.5191C36.1201 46.6049 35.3092 46.3911 35.1866 45.7585C35.0321 44.9594 36.0984 44.4382 36.2632 43.6403C36.3258 43.3407 36.2517 43.0282 36.2874 42.7247C36.359 42.1126 36.8519 41.6413 37.3538 41.2866C38.9436 40.1678 40.8777 39.651 42.8119 39.828C43.0533 39.8306 43.2884 39.905 43.4875 40.0419C43.6982 40.216 43.7786 40.4965 43.9217 40.7283C44.4159 41.5286 45.5231 41.6247 46.3187 42.1216C47.2497 42.7042 47.7094 43.8478 47.7516 44.9478C47.7937 46.0479 47.4808 47.1249 47.1705 48.1814C46.9074 49.0778 46.6316 49.9998 46.0543 50.7349C45.4771 51.4699 44.5219 51.9847 43.6113 51.7594C44.0277 51.4584 43.7263 50.7618 43.2755 50.5172C42.8247 50.2726 42.2666 50.2303 41.8822 49.8935C41.4978 49.5567 41.3816 49.0035 41.2552 48.5015C41.0968 47.8612 40.8721 47.2209 40.4072 46.7612C39.5069 45.8571 37.8697 46.3693 36.7587 46.5191Z" fill="black"/>
</g>
<path d="M36.8813 46.4577C36.2427 46.5447 35.4318 46.3296 35.3079 45.6983C35.1534 44.8979 36.2198 44.378 36.3858 43.5789C36.4471 43.2792 36.373 42.968 36.4088 42.6632C36.4803 42.0511 36.9745 41.5811 37.4764 41.2251C39.066 40.1069 40.9995 39.59 42.9332 39.7665C43.1747 39.7696 43.4098 39.8445 43.6088 39.9817C43.8195 40.1545 43.9012 40.435 44.0443 40.6668C44.5372 41.4672 45.6457 41.5632 46.4413 42.0601C47.371 42.6428 47.832 43.7876 47.8729 44.8864C47.9137 45.9851 47.6021 47.0634 47.2931 48.1199C47.0287 49.0163 46.7542 49.9396 46.1757 50.6747C45.5972 51.4098 44.6432 51.9233 43.7339 51.6992C44.149 51.3995 43.8476 50.7016 43.3981 50.457C42.9486 50.2124 42.3892 50.1714 42.0035 49.8333C41.6179 49.4953 41.5029 48.9433 41.3778 48.4413C41.2194 47.8074 40.9947 47.1607 40.5298 46.7023C39.6244 45.7956 37.991 46.3078 36.8813 46.4577Z" fill="#464353"/>
<path d="M43.2589 42.0537L43.6509 40.0406C43.6546 40.0212 43.6545 40.0014 43.6505 39.9821C43.6466 39.9628 43.6389 39.9445 43.6278 39.9282C43.6168 39.9119 43.6027 39.8979 43.5863 39.8871C43.5698 39.8763 43.5515 39.8688 43.5322 39.8651L42.1504 39.5949C42.1312 39.591 42.1114 39.591 42.0922 39.5948C42.0729 39.5986 42.0547 39.6062 42.0384 39.6172C42.0221 39.6282 42.0082 39.6422 41.9974 39.6586C41.9866 39.675 41.9791 39.6934 41.9754 39.7127L41.5834 41.7246L40.2438 46.6933L42.6995 47.1761L43.2589 42.0537Z" fill="#FFC107"/>
<g opacity="0.1">
<path opacity="0.1" d="M36.3385 43.739C36.4286 43.6018 36.4934 43.4495 36.5301 43.2895C36.5914 42.9898 36.5173 42.6773 36.5531 42.3738C36.5665 42.2657 36.5926 42.1595 36.631 42.0575C36.5129 42.2403 36.437 42.4473 36.4088 42.6633C36.373 42.968 36.4471 43.2792 36.3845 43.5789C36.3738 43.6335 36.3585 43.687 36.3385 43.739Z" fill="black"/>
<path opacity="0.1" d="M46.32 50.384C45.7517 51.1088 44.813 51.6159 43.9191 51.42C43.8946 51.5338 43.8286 51.6343 43.7339 51.7017C44.6406 51.9233 45.5984 51.4098 46.1757 50.6773C46.3924 50.3965 46.5751 50.0909 46.7197 49.7668C46.6053 49.9842 46.4716 50.1908 46.32 50.384Z" fill="black"/>
<path opacity="0.1" d="M43.9255 51.3701C44.2665 51.0525 43.9728 50.4045 43.5424 50.1701C43.0916 49.9255 42.5335 49.8833 42.1478 49.5465C41.7622 49.2097 41.6472 48.6565 41.5221 48.1532C41.3637 47.5193 41.139 46.8726 40.6741 46.4141C39.7687 45.5062 38.1353 46.0184 37.0256 46.1683C36.3871 46.2541 35.5761 46.0402 35.4535 45.4076C35.4245 45.2581 35.4369 45.1036 35.4893 44.9607C35.4122 45.0656 35.3565 45.1848 35.3254 45.3114C35.2942 45.4379 35.2883 45.5694 35.3079 45.6983C35.4357 46.3309 36.244 46.5448 36.8813 46.4577C37.991 46.3078 39.6244 45.7956 40.5298 46.7048C40.9896 47.1671 41.2194 47.81 41.3778 48.4439C41.5055 48.9459 41.614 49.4953 42.0035 49.8359C42.393 50.1765 42.9473 50.2201 43.3981 50.4596C43.7212 50.6337 43.9651 51.0435 43.9255 51.3701Z" fill="black"/>
</g>
<g opacity="0.1">
<path opacity="0.1" d="M41.2258 49.9371C42.4037 49.9371 43.3585 48.9796 43.3585 47.7985C43.3585 46.6173 42.4037 45.6599 41.2258 45.6599C40.048 45.6599 39.0931 46.6173 39.0931 47.7985C39.0931 48.9796 40.048 49.9371 41.2258 49.9371Z" fill="black"/>
</g>
<path d="M41.2258 49.9985C42.4037 49.9985 43.3585 49.0411 43.3585 47.8599C43.3585 46.6788 42.4037 45.7213 41.2258 45.7213C40.048 45.7213 39.0931 46.6788 39.0931 47.8599C39.0931 49.0411 40.048 49.9985 41.2258 49.9985Z" fill="#FFC107"/>
<path d="M41.2258 49.2609C41.9974 49.2609 42.6229 48.6337 42.6229 47.8599C42.6229 47.0862 41.9974 46.459 41.2258 46.459C40.4542 46.459 39.8287 47.0862 39.8287 47.8599C39.8287 48.6337 40.4542 49.2609 41.2258 49.2609Z" fill="#333333"/>
<path d="M41.2258 48.2877C41.4614 48.2877 41.6523 48.0962 41.6523 47.8599C41.6523 47.6237 41.4614 47.4322 41.2258 47.4322C40.9902 47.4322 40.7993 47.6237 40.7993 47.8599C40.7993 48.0962 40.9902 48.2877 41.2258 48.2877Z" fill="#FFC107"/>
<path opacity="0.05" d="M43.2946 41.875L41.6201 41.5471L41.6083 41.6074L43.2828 41.9353L43.2946 41.875Z" fill="black"/>
<path d="M29.3691 70.8057L28.9607 71.0031C28.5579 71.1978 28.3888 71.6831 28.583 72.087L30.0766 75.1935C30.2708 75.5974 30.7547 75.767 31.1575 75.5722L31.5659 75.3748C31.9687 75.1801 32.1378 74.6948 31.9436 74.2909L30.45 71.1844C30.2558 70.7805 29.7719 70.6109 29.3691 70.8057Z" fill="#CBDAE3"/>
<path d="M29.9316 70.5337L28.3982 71.275C28.3061 71.3196 28.2674 71.4306 28.3118 71.5229L30.3478 75.7576C30.3922 75.8499 30.5029 75.8887 30.595 75.8442L32.1284 75.1028C32.2205 75.0583 32.2592 74.9473 32.2148 74.8549L30.1788 70.6203C30.1344 70.5279 30.0237 70.4892 29.9316 70.5337Z" fill="#535461"/>
<path d="M30.1276 70.4393L28.5838 71.1856C28.4796 71.236 28.4359 71.3615 28.4861 71.466L30.501 75.6568C30.5512 75.7613 30.6764 75.8052 30.7806 75.7548L32.3244 75.0084C32.4286 74.9581 32.4723 74.8325 32.4221 74.728L30.4072 70.5372C30.3569 70.4328 30.2318 70.3889 30.1276 70.4393Z" fill="#FFC107"/>
<path d="M30.2408 70.7916L28.7891 71.4935L30.4568 74.9622L31.9085 74.2603L30.2408 70.7916Z" fill="#F2F2F2"/>
<path d="M31.5017 75.2041C31.5925 75.1602 31.6187 75.0259 31.5602 74.9042C31.5017 74.7825 31.3807 74.7195 31.2898 74.7634C31.199 74.8074 31.1727 74.9416 31.2312 75.0633C31.2897 75.185 31.4108 75.248 31.5017 75.2041Z" fill="#F2F2F2"/>
<g opacity="0.1">
<path opacity="0.1" d="M42.6229 71.3654C43.4804 71.375 44.3288 71.5426 45.1259 71.8597C46.403 72.3796 47.7554 71.8597 47.7554 71.8597C47.7554 71.8597 43.9038 70.7392 42.6229 71.3654Z" fill="black"/>
</g>
<path d="M86.5829 94.4597C86.5829 94.4597 87.3772 95.5009 86.2164 97.0735C85.0555 98.646 84.099 99.9727 84.486 100.952C84.486 100.952 86.2368 98.0326 87.662 97.9916C89.0872 97.9507 88.1511 96.2154 86.5829 94.4597Z" fill="#FFC107"/>
<path opacity="0.1" d="M86.5829 94.4597C86.6522 94.5603 86.7068 94.6703 86.7451 94.7863C88.1358 96.4242 88.8778 97.9532 87.5407 97.9878C86.2956 98.0237 84.8014 100.257 84.4438 100.821C84.4554 100.864 84.4694 100.907 84.486 100.949C84.486 100.949 86.2368 98.0288 87.662 97.9878C89.0872 97.9468 88.1511 96.2155 86.5829 94.4597Z" fill="black"/>
<path d="M88.0592 95.7865C88.0592 96.154 88.0183 96.4511 87.9685 96.4511C87.9187 96.4511 87.8765 96.154 87.8765 95.7865C87.8765 95.4189 87.9276 95.5931 87.9787 95.5931C88.0298 95.5931 88.0592 95.4202 88.0592 95.7865Z" fill="#FFD037"/>
<path d="M88.5661 96.2231C88.2456 96.3986 87.9659 96.5049 87.9417 96.46C87.9174 96.4152 88.1575 96.2372 88.478 96.0618C88.7986 95.8864 88.6734 96.0144 88.6977 96.0618C88.7219 96.1092 88.8867 96.049 88.5661 96.2231Z" fill="#FFD037"/>
<path d="M82.389 94.4597C82.389 94.4597 81.5947 95.5009 82.7556 97.0735C83.9164 98.646 84.8729 99.9727 84.486 100.952C84.486 100.952 82.7351 98.0326 81.3099 97.9916C79.8847 97.9507 80.8208 96.2154 82.389 94.4597Z" fill="#FFC107"/>
<path opacity="0.1" d="M82.389 94.4597C82.3197 94.5603 82.2651 94.6703 82.2269 94.7863C80.8361 96.4242 80.0955 97.9532 81.4325 97.9878C82.6776 98.0237 84.1705 100.257 84.5281 100.821C84.5165 100.864 84.5025 100.907 84.486 100.949C84.486 100.949 82.7351 98.0288 81.3099 97.9878C79.8847 97.9468 80.8208 96.2155 82.389 94.4597Z" fill="black"/>
<path d="M80.9128 95.7865C80.9128 96.154 80.9536 96.4511 81.0047 96.4511C81.0558 96.4511 81.0967 96.154 81.0967 95.7865C81.0967 95.4189 81.0443 95.5931 80.9945 95.5931C80.9447 95.5931 80.9128 95.4202 80.9128 95.7865Z" fill="#FFD037"/>
<path d="M80.4058 96.2231C80.7276 96.3986 81.0073 96.5049 81.0315 96.46C81.0558 96.4152 80.8144 96.2372 80.4939 96.0618C80.1734 95.8864 80.2998 96.0144 80.2755 96.0618C80.2513 96.1092 80.0852 96.049 80.4058 96.2231Z" fill="#FFD037"/>
<path d="M81.1656 100.817C81.1656 100.817 83.3864 100.747 84.0556 100.27C84.7248 99.7922 87.4704 99.2223 87.6314 99.9881C87.7923 100.754 90.967 103.799 88.4614 103.82C85.9559 103.84 82.6368 103.428 81.9689 103.019C81.301 102.611 81.1656 100.817 81.1656 100.817Z" fill="#A8A8A8"/>
<path opacity="0.2" d="M88.5112 103.552C86.0044 103.573 82.6866 103.161 82.0187 102.753C81.5079 102.443 81.3074 101.328 81.2397 100.814H81.1656C81.1656 100.814 81.3061 102.607 81.974 103.017C82.6419 103.427 85.9597 103.838 88.4665 103.817C89.1893 103.811 89.4396 103.553 89.4256 103.17C89.326 103.403 89.0489 103.548 88.5112 103.552Z" fill="black"/>
<path d="M76.8849 102.451C77.0687 102.298 77.2022 102.094 77.2681 101.864C77.3179 101.632 77.2183 101.352 76.9973 101.269C76.7419 101.173 76.4865 101.346 76.2822 101.525C76.0778 101.704 75.8493 101.899 75.5862 101.862C75.7217 101.738 75.8231 101.582 75.8804 101.408C75.9377 101.234 75.949 101.048 75.9131 100.868C75.9016 100.793 75.8703 100.724 75.8224 100.666C75.6845 100.518 75.4393 100.582 75.2695 100.699C74.7446 101.069 74.5977 101.784 74.5952 102.428C74.5416 102.196 74.5862 101.954 74.585 101.716C74.5837 101.477 74.5186 101.214 74.3181 101.086C74.1937 101.018 74.0535 100.985 73.912 100.99C73.6757 100.981 73.4126 101.004 73.2517 101.178C73.0512 101.393 73.1036 101.754 73.2773 101.99C73.4509 102.225 73.7166 102.374 73.9605 102.539C74.1565 102.656 74.3234 102.815 74.4483 103.006C74.4639 103.033 74.4764 103.061 74.4854 103.09H75.9655C76.2996 102.92 76.6089 102.705 76.8849 102.451Z" fill="#FFC107"/>
<path d="M66.8524 101.62C66.8524 101.62 65.4323 96.7879 67.118 93.2317C67.8333 91.744 68.0479 90.0639 67.7298 88.4435C67.5728 87.6754 67.3467 86.9231 67.0542 86.196" stroke="#535461" stroke-width="2" stroke-miterlimit="10"/>
<path d="M68.1129 83.9486C68.1129 84.5402 67.0427 86.2537 67.0427 86.2537C67.0427 86.2537 65.9738 84.5364 65.9738 83.9486C65.9834 83.6706 66.1003 83.4071 66.2998 83.2138C66.4993 83.0205 66.7659 82.9125 67.0433 82.9125C67.3208 82.9125 67.5874 83.0205 67.7869 83.2138C67.9864 83.4071 68.1033 83.6706 68.1129 83.9486Z" fill="#FFC107"/>
<path d="M69.8739 87.2282C69.5521 87.7263 67.7246 88.5843 67.7246 88.5843C67.7246 88.5843 67.7578 86.5597 68.0784 86.0628C68.2325 85.8241 68.4749 85.6565 68.7522 85.5969C69.0295 85.5374 69.3191 85.5907 69.5572 85.7453C69.7953 85.8998 69.9624 86.1428 70.0218 86.421C70.0812 86.6991 70.028 86.9894 69.8739 87.2282Z" fill="#FFC107"/>
<path d="M69.796 92.8334C69.2686 93.101 67.2585 92.9166 67.2585 92.9166C67.2585 92.9166 68.3057 91.1852 68.8331 90.9189C68.9585 90.8555 69.0951 90.8175 69.2351 90.807C69.3751 90.7965 69.5158 90.8138 69.6492 90.8579C69.7825 90.9019 69.9059 90.9719 70.0123 91.0638C70.1187 91.1556 70.206 91.2676 70.2692 91.3933C70.3324 91.519 70.3703 91.656 70.3808 91.7964C70.3912 91.9368 70.374 92.0779 70.33 92.2116C70.2861 92.3453 70.2163 92.4691 70.1247 92.5758C70.0331 92.6824 69.9214 92.77 69.796 92.8334Z" fill="#FFC107"/>
<path d="M68.7859 97.0619C68.3108 97.4141 66.2982 97.5742 66.2982 97.5742C66.2982 97.5742 67.0389 95.6904 67.5139 95.3382C67.7421 95.1684 68.0281 95.0964 68.3091 95.1381C68.5902 95.1797 68.8432 95.3317 69.0126 95.5604C69.1819 95.7892 69.2537 96.076 69.2122 96.3578C69.1706 96.6397 69.0191 96.8934 68.791 97.0632L68.7859 97.0619Z" fill="#FFC107"/>
<path d="M65.4796 88.6996C65.9023 89.112 67.8766 89.5397 67.8766 89.5397C67.8766 89.5397 67.3926 87.574 66.9699 87.1616C66.8697 87.0615 66.7507 86.9824 66.6197 86.9288C66.4888 86.8752 66.3485 86.8482 66.2071 86.8494C66.0657 86.8505 65.9259 86.8798 65.7959 86.9355C65.6658 86.9912 65.5481 87.0722 65.4495 87.1739C65.3509 87.2756 65.2734 87.3959 65.2215 87.5278C65.1695 87.6597 65.1443 87.8006 65.1471 87.9424C65.1499 88.0842 65.1807 88.224 65.2378 88.3538C65.2949 88.4836 65.3771 88.6007 65.4796 88.6983V88.6996Z" fill="#FFC107"/>
<path d="M64.3596 93.6619C64.887 93.9296 66.8971 93.7452 66.8971 93.7452C66.8971 93.7452 65.8499 92.0138 65.3225 91.7474C65.1967 91.684 65.0597 91.6461 64.9193 91.6358C64.7789 91.6255 64.6379 91.643 64.5042 91.6874C64.3706 91.7317 64.247 91.802 64.1404 91.8943C64.0339 91.9865 63.9465 92.099 63.8833 92.2251C63.82 92.3512 63.7822 92.4886 63.7719 92.6294C63.7617 92.7702 63.7791 92.9116 63.8234 93.0456C63.8676 93.1796 63.9377 93.3036 64.0297 93.4105C64.1217 93.5173 64.2338 93.6049 64.3596 93.6683V93.6619Z" fill="#FFC107"/>
<path d="M63.9305 98.6281C64.4056 98.9803 66.4182 99.1404 66.4182 99.1404C66.4182 99.1404 65.6775 97.2566 65.2025 96.9044C65.0896 96.8203 64.9613 96.7594 64.825 96.725C64.6886 96.6906 64.5468 96.6835 64.4077 96.7041C64.2686 96.7247 64.1349 96.7725 64.0143 96.8449C63.8936 96.9173 63.7883 97.0128 63.7045 97.126C63.6206 97.2391 63.5598 97.3678 63.5256 97.5045C63.4913 97.6413 63.4842 97.7834 63.5047 97.9229C63.5252 98.0624 63.5729 98.1965 63.6451 98.3175C63.7173 98.4385 63.8126 98.544 63.9254 98.6281H63.9305Z" fill="#FFC107"/>
<path d="M68.1129 83.9486C68.1129 84.5402 67.0427 86.2537 67.0427 86.2537C67.0427 86.2537 65.9738 84.5364 65.9738 83.9486C65.9834 83.6706 66.1003 83.4071 66.2998 83.2138C66.4993 83.0205 66.7659 82.9125 67.0433 82.9125C67.3208 82.9125 67.5874 83.0205 67.7869 83.2138C67.9864 83.4071 68.1033 83.6706 68.1129 83.9486Z" fill="#FFC107"/>
<path d="M69.8739 87.2282C69.5521 87.7263 67.7246 88.5843 67.7246 88.5843C67.7246 88.5843 67.7578 86.5597 68.0784 86.0628C68.2325 85.8241 68.4749 85.6565 68.7522 85.5969C69.0295 85.5374 69.3191 85.5907 69.5572 85.7453C69.7953 85.8998 69.9624 86.1428 70.0218 86.421C70.0812 86.6991 70.028 86.9894 69.8739 87.2282Z" fill="#FFC107"/>
<path d="M69.796 92.8334C69.2686 93.101 67.2585 92.9166 67.2585 92.9166C67.2585 92.9166 68.3057 91.1852 68.8331 90.9189C68.9585 90.8555 69.0951 90.8175 69.2351 90.807C69.3751 90.7965 69.5158 90.8138 69.6492 90.8579C69.7825 90.9019 69.9059 90.9719 70.0123 91.0638C70.1187 91.1556 70.206 91.2676 70.2692 91.3933C70.3324 91.519 70.3703 91.656 70.3808 91.7964C70.3912 91.9368 70.374 92.0779 70.33 92.2116C70.2861 92.3453 70.2163 92.4691 70.1247 92.5758C70.0331 92.6824 69.9214 92.77 69.796 92.8334Z" fill="#FFC107"/>
<path d="M68.7859 97.0619C68.3108 97.4141 66.2982 97.5742 66.2982 97.5742C66.2982 97.5742 67.0389 95.6904 67.5139 95.3382C67.7421 95.1684 68.0281 95.0964 68.3091 95.1381C68.5902 95.1797 68.8432 95.3317 69.0126 95.5604C69.1819 95.7892 69.2537 96.076 69.2122 96.3578C69.1706 96.6397 69.0191 96.8934 68.791 97.0632L68.7859 97.0619Z" fill="#FFC107"/>
<path d="M65.4796 88.6996C65.9023 89.112 67.8766 89.5397 67.8766 89.5397C67.8766 89.5397 67.3926 87.574 66.9699 87.1616C66.8697 87.0615 66.7507 86.9824 66.6197 86.9288C66.4888 86.8752 66.3485 86.8482 66.2071 86.8494C66.0657 86.8505 65.9259 86.8798 65.7959 86.9355C65.6658 86.9912 65.5481 87.0722 65.4495 87.1739C65.3509 87.2756 65.2734 87.3959 65.2215 87.5278C65.1695 87.6597 65.1443 87.8006 65.1471 87.9424C65.1499 88.0842 65.1807 88.224 65.2378 88.3538C65.2949 88.4836 65.3771 88.6007 65.4796 88.6983V88.6996Z" fill="#FFC107"/>
<path d="M64.3596 93.6619C64.887 93.9296 66.8971 93.7452 66.8971 93.7452C66.8971 93.7452 65.8499 92.0138 65.3225 91.7474C65.1967 91.684 65.0597 91.6461 64.9193 91.6358C64.7789 91.6255 64.6379 91.643 64.5042 91.6874C64.3706 91.7317 64.247 91.802 64.1404 91.8943C64.0339 91.9865 63.9465 92.099 63.8833 92.2251C63.82 92.3512 63.7822 92.4886 63.7719 92.6294C63.7617 92.7702 63.7791 92.9116 63.8234 93.0456C63.8676 93.1796 63.9377 93.3036 64.0297 93.4105C64.1217 93.5173 64.2338 93.6049 64.3596 93.6683V93.6619Z" fill="#FFC107"/>
<path d="M63.9305 98.6281C64.4056 98.9803 66.4182 99.1404 66.4182 99.1404C66.4182 99.1404 65.6775 97.2566 65.2025 96.9044C65.0896 96.8203 64.9613 96.7594 64.825 96.725C64.6886 96.6906 64.5468 96.6835 64.4077 96.7041C64.2686 96.7247 64.1349 96.7725 64.0143 96.8449C63.8936 96.9173 63.7883 97.0128 63.7045 97.126C63.6206 97.2391 63.5598 97.3678 63.5256 97.5045C63.4913 97.6413 63.4842 97.7834 63.5047 97.9229C63.5252 98.0624 63.5729 98.1965 63.6451 98.3175C63.7173 98.4385 63.8126 98.544 63.9254 98.6281H63.9305Z" fill="#FFC107"/>
<path d="M63.4976 101.315C63.4976 101.315 65.2255 100.97 65.6865 100.512C66.1475 100.053 68.2214 99.2505 68.4513 99.8229C68.6812 100.395 71.5622 102.347 69.6007 102.691C67.6391 103.036 64.993 103.15 64.4171 102.921C63.8411 102.691 63.4976 101.315 63.4976 101.315Z" fill="#A8A8A8"/>
<path opacity="0.2" d="M69.6045 102.478C67.6455 102.822 64.9956 102.936 64.4196 102.707C63.9803 102.533 63.6764 101.693 63.5551 101.298L63.4976 101.311C63.4976 101.311 63.8437 102.688 64.4196 102.917C64.9956 103.146 67.6455 103.031 69.6045 102.688C70.1689 102.588 70.3311 102.355 70.2698 102.059C70.2213 102.256 70.0285 102.403 69.6045 102.478Z" fill="black"/>
</g>
<defs>
<linearGradient id="paint0_linear" x1="113.768" y1="108.884" x2="113.768" y2="42.0575" gradientUnits="userSpaceOnUse">
<stop stop-color="#808080" stop-opacity="0.25"/>
<stop offset="0.54" stop-color="#808080" stop-opacity="0.12"/>
<stop offset="1" stop-color="#808080" stop-opacity="0.1"/>
</linearGradient>
<linearGradient id="paint1_linear" x1="7567.8" y1="42399.3" x2="17485.2" y2="42399.3" gradientUnits="userSpaceOnUse">
<stop stop-color="#808080" stop-opacity="0.25"/>
<stop offset="0.54" stop-color="#808080" stop-opacity="0.12"/>
<stop offset="1" stop-color="#808080" stop-opacity="0.1"/>
</linearGradient>
<linearGradient id="paint2_linear" x1="89.8052" y1="148.278" x2="90.0048" y2="148.278" gradientUnits="userSpaceOnUse">
<stop stop-color="#808080" stop-opacity="0.25"/>
<stop offset="0.54" stop-color="#808080" stop-opacity="0.12"/>
<stop offset="1" stop-color="#808080" stop-opacity="0.1"/>
</linearGradient>
<linearGradient id="paint3_linear" x1="90.0868" y1="149.297" x2="90.2864" y2="149.297" gradientUnits="userSpaceOnUse">
<stop stop-color="#808080" stop-opacity="0.25"/>
<stop offset="0.54" stop-color="#808080" stop-opacity="0.12"/>
<stop offset="1" stop-color="#808080" stop-opacity="0.1"/>
</linearGradient>
<linearGradient id="paint4_linear" x1="90.0868" y1="148.278" x2="90.2864" y2="148.278" gradientUnits="userSpaceOnUse">
<stop stop-color="#808080" stop-opacity="0.25"/>
<stop offset="0.54" stop-color="#808080" stop-opacity="0.12"/>
<stop offset="1" stop-color="#808080" stop-opacity="0.1"/>
</linearGradient>
<clipPath id="clip0">
<rect width="145.93" height="111" fill="white"/>
</clipPath>
</defs>
</svg>
