<svg width="205" height="111" viewBox="0 0 205 111" fill="none" xmlns="http://www.w3.org/2000/svg">
<g clip-path="url(#clip0)">
<path d="M22.3536 74.1657C22.3536 74.1657 20.4094 63.1602 13.1969 57.7045C10.1712 55.4159 7.95215 52.3048 6.99 48.7581C6.53403 47.079 6.24209 45.3596 6.11829 43.6241" stroke="#535461" stroke-width="2" stroke-miterlimit="10"/>
<path d="M1.59512 40.1605C2.20279 41.341 6.22499 43.7272 6.22499 43.7272C6.22499 43.7272 6.73138 39.2693 6.12552 38.0889C5.51966 36.9084 4.01314 36.4149 2.76163 36.9879C1.51012 37.561 0.989262 38.9819 1.59512 40.1605Z" fill="#FFC107"/>
<path d="M1.22079 48.4128C2.41081 49.0925 7.16185 49.031 7.16185 49.031C7.16185 49.031 5.01873 45.0287 3.81966 44.349C3.24897 44.0213 2.57527 43.9216 1.93408 44.0702C1.29288 44.2188 0.731752 44.6045 0.363541 45.1498C0.193947 45.4172 0.0813217 45.7167 0.0326991 46.0295C-0.0159235 46.3423 0.000501116 46.6618 0.0809462 46.968C0.161391 47.2742 0.304129 47.5605 0.500248 47.8091C0.696366 48.0577 0.941653 48.2632 1.22079 48.4128Z" fill="#FFC107"/>
<path d="M7.11842 59.5104C8.50738 59.5303 12.5766 57.2146 12.5766 57.2146C12.5766 57.2146 8.58514 54.776 7.18895 54.7597C5.79276 54.7435 4.65699 55.7865 4.63348 57.0989C4.60997 58.4113 5.72765 59.4887 7.11842 59.5104Z" fill="#FFC107"/>
<path d="M13.5894 66.9565C14.9566 67.1987 19.3767 65.5645 19.3767 65.5645C19.3767 65.5645 15.8772 62.5294 14.5117 62.2871C13.1463 62.0449 11.8297 62.8945 11.5747 64.1852C11.3197 65.476 12.2239 66.707 13.5894 66.9565Z" fill="#FFC107"/>
<path d="M12.025 47.0841C11.5512 48.317 7.80929 51.081 7.80929 51.081C7.80929 51.081 6.82725 46.6955 7.29386 45.4626C7.76046 44.2297 9.21272 43.5934 10.5185 44.0399C11.8243 44.4864 12.5007 45.8512 12.025 47.0841Z" fill="#FFC107"/>
<path d="M19.487 55.8842C18.6424 56.9254 14.1971 58.5072 14.1971 58.5072C14.1971 58.5072 14.642 54.0421 15.4865 53.0008C15.9097 52.4955 16.5082 52.1687 17.1622 52.0859C17.8162 52.0031 18.4774 52.1704 19.0132 52.5543C19.2733 52.7338 19.4935 52.9652 19.6598 53.2339C19.8261 53.5025 19.9349 53.8027 19.9794 54.1155C20.0239 54.4284 20.0032 54.747 19.9184 55.0514C19.8337 55.3557 19.6868 55.6393 19.487 55.8842Z" fill="#FFC107"/>
<path d="M25.4769 65.3747C24.8313 66.5353 20.7331 68.8094 20.7331 68.8094C20.7331 68.8094 20.3714 64.3389 21.0171 63.1765C21.3505 62.6101 21.8867 62.1914 22.5173 62.0051C23.1478 61.8189 23.8256 61.8789 24.4135 62.1732C24.7005 62.306 24.9572 62.4961 25.1678 62.7319C25.3785 62.9676 25.5385 63.244 25.6382 63.544C25.7378 63.844 25.7749 64.1612 25.7472 64.476C25.7194 64.7909 25.6275 65.0967 25.4769 65.3747Z" fill="#FFC107"/>
<path opacity="0.25" d="M1.59512 40.1605C2.20279 41.341 6.22499 43.7272 6.22499 43.7272C6.22499 43.7272 6.73138 39.2693 6.12552 38.0889C5.51966 36.9084 4.01314 36.4149 2.76163 36.9879C1.51012 37.561 0.989262 38.9819 1.59512 40.1605Z" fill="black"/>
<path opacity="0.25" d="M1.22079 48.4128C2.41081 49.0925 7.16185 49.031 7.16185 49.031C7.16185 49.031 5.01873 45.0287 3.81966 44.349C3.24897 44.0213 2.57527 43.9216 1.93408 44.0702C1.29288 44.2188 0.731752 44.6045 0.363541 45.1498C0.193947 45.4172 0.0813217 45.7167 0.0326991 46.0295C-0.0159235 46.3423 0.000501116 46.6618 0.0809462 46.968C0.161391 47.2742 0.304129 47.5605 0.500248 47.8091C0.696366 48.0577 0.941653 48.2632 1.22079 48.4128Z" fill="black"/>
<path opacity="0.25" d="M7.11842 59.5104C8.50738 59.5303 12.5766 57.2146 12.5766 57.2146C12.5766 57.2146 8.58514 54.776 7.18895 54.7597C5.79276 54.7435 4.65699 55.7865 4.63348 57.0989C4.60997 58.4113 5.72765 59.4887 7.11842 59.5104Z" fill="black"/>
<path opacity="0.25" d="M13.5894 66.9565C14.9566 67.1987 19.3767 65.5645 19.3767 65.5645C19.3767 65.5645 15.8772 62.5294 14.5117 62.2871C13.1463 62.0449 11.8297 62.8945 11.5747 64.1852C11.3197 65.476 12.2239 66.707 13.5894 66.9565Z" fill="black"/>
<path opacity="0.25" d="M12.025 47.0841C11.5512 48.317 7.80929 51.081 7.80929 51.081C7.80929 51.081 6.82725 46.6955 7.29386 45.4626C7.76046 44.2297 9.21272 43.5934 10.5185 44.0399C11.8243 44.4864 12.5007 45.8512 12.025 47.0841Z" fill="black"/>
<path opacity="0.25" d="M19.487 55.8842C18.6424 56.9254 14.1971 58.5072 14.1971 58.5072C14.1971 58.5072 14.642 54.0421 15.4865 53.0008C15.9097 52.4955 16.5082 52.1687 17.1622 52.0859C17.8162 52.0031 18.4774 52.1704 19.0132 52.5543C19.2733 52.7338 19.4935 52.9652 19.6598 53.2339C19.8261 53.5025 19.9349 53.8027 19.9794 54.1155C20.0239 54.4284 20.0032 54.747 19.9184 55.0514C19.8337 55.3557 19.6868 55.6393 19.487 55.8842Z" fill="black"/>
<path opacity="0.25" d="M25.4769 65.3747C24.8313 66.5353 20.7331 68.8094 20.7331 68.8094C20.7331 68.8094 20.3714 64.3389 21.0171 63.1765C21.3505 62.6101 21.8867 62.1914 22.5173 62.0051C23.1478 61.8189 23.8256 61.8789 24.4135 62.1732C24.7005 62.306 24.9572 62.4961 25.1678 62.7319C25.3785 62.9676 25.5385 63.244 25.6382 63.544C25.7378 63.844 25.7749 64.1612 25.7472 64.476C25.7194 64.7909 25.6275 65.0967 25.4769 65.3747Z" fill="black"/>
<path d="M22.1094 73.8765C22.1094 73.8765 25.0592 63.0717 20.8073 55.3255C19.0222 52.0716 18.335 48.3839 18.9734 44.7738C19.2832 43.0564 19.758 41.3728 20.3913 39.7465" stroke="#535461" stroke-width="2" stroke-miterlimit="10"/>
<path d="M17.7328 34.8512C17.7816 36.1618 20.4347 39.8821 20.4347 39.8821C20.4347 39.8821 22.8129 35.9991 22.7641 34.6867C22.7153 33.3743 21.5524 32.3511 20.1616 32.3945C18.7709 32.4379 17.6785 33.5406 17.7328 34.8512Z" fill="#FFC107"/>
<path d="M13.8408 42.2485C14.6347 43.3241 19.006 45.0848 19.006 45.0848C19.006 45.0848 18.7636 40.607 17.9697 39.5296C17.5675 39.0077 16.9828 38.657 16.3329 38.5477C15.6829 38.4384 15.0156 38.5786 14.4647 38.9403C14.1969 39.1084 13.9667 39.33 13.7886 39.5912C13.6105 39.8524 13.4883 40.1475 13.4298 40.4581C13.3712 40.7688 13.3774 41.0881 13.4482 41.3962C13.5189 41.7043 13.6526 41.9944 13.8408 42.2485Z" fill="#FFC107"/>
<path d="M14.4738 54.6513C15.7397 55.1936 20.451 54.6404 20.451 54.6404C20.451 54.6404 17.8467 50.8894 16.5843 50.338C15.322 49.7867 13.8281 50.3073 13.2439 51.4986C12.6598 52.6899 13.2114 54.1017 14.4738 54.6513Z" fill="#FFC107"/>
<path d="M17.1938 63.934C18.3386 64.6769 23.086 64.8758 23.086 64.8758C23.086 64.8758 21.1907 60.7632 20.0459 60.0184C19.493 59.6603 18.8251 59.5242 18.1762 59.6375C17.5272 59.7508 16.945 60.1052 16.5463 60.6294C16.3593 60.8846 16.2271 61.1758 16.1582 61.4845C16.0893 61.7933 16.0851 62.113 16.1459 62.4235C16.2067 62.7339 16.3313 63.0284 16.5116 63.2884C16.692 63.5484 16.9242 63.7682 17.1938 63.934Z" fill="#FFC107"/>
<path d="M24.296 45.1679C23.3338 46.1134 18.7256 47.2107 18.7256 47.2107C18.7256 47.2107 19.7041 42.8215 20.668 41.8761C21.144 41.4199 21.7744 41.1597 22.4336 41.1473C23.0929 41.1349 23.7326 41.3712 24.2254 41.8092C24.4622 42.0181 24.6531 42.2738 24.7861 42.5602C24.919 42.8466 24.991 43.1574 24.9976 43.4731C25.0043 43.7887 24.9453 44.1023 24.8246 44.394C24.7038 44.6858 24.5238 44.9493 24.296 45.1679Z" fill="#FFC107"/>
<path d="M27.3307 56.0613C26.1117 56.6922 21.3625 56.4391 21.3625 56.4391C21.3625 56.4391 23.6865 52.5272 24.9054 51.8963C25.4882 51.5908 26.1653 51.5181 26.7996 51.693C27.434 51.8679 27.9781 52.2772 28.3218 52.8381C28.4796 53.1123 28.5794 53.4159 28.6148 53.7302C28.6502 54.0446 28.6204 54.3628 28.5275 54.6651C28.4345 54.9675 28.2803 55.2475 28.0744 55.4877C27.8685 55.7279 27.6153 55.9231 27.3307 56.0613Z" fill="#FFC107"/>
<path d="M28.7395 67.0324C27.6544 67.8495 22.9287 68.3539 22.9287 68.3539C22.9287 68.3539 24.5202 64.1292 25.609 63.3139C26.138 62.9206 26.7961 62.7414 27.4516 62.8121C28.1071 62.8828 28.7118 63.1983 29.1447 63.6953C29.3494 63.9359 29.502 64.2162 29.593 64.5186C29.684 64.8211 29.7113 65.1391 29.6733 65.4526C29.6352 65.7661 29.5326 66.0683 29.3719 66.3402C29.2112 66.6121 28.9959 66.8478 28.7395 67.0324Z" fill="#FFC107"/>
<path opacity="0.1" d="M202.289 100.759C201.518 101.653 200.635 102.443 199.661 103.109C195.252 106.155 188.978 107.415 182.901 108.211C181.55 108.388 180.194 108.547 178.834 108.69C170.41 109.583 161.868 109.881 153.334 110.102C152.111 110.134 150.888 110.165 149.664 110.194C141.057 110.405 132.443 110.617 123.831 110.77C113.491 110.951 103.15 111.058 92.818 110.976C82.6739 110.899 72.5388 110.647 62.42 110.123C61.447 110.075 60.4747 110.023 59.5029 109.966C50.641 109.462 41.6272 108.701 33.1542 106.905C28.7641 106.006 24.461 104.726 20.2937 103.079C17.0383 101.762 13.9149 100.136 11.4083 98.1759C9.45507 96.6484 7.87441 94.922 6.88694 92.9769C4.62084 88.5064 5.81809 83.4809 8.41154 79.099C11.005 74.717 14.8988 70.7834 18.2572 66.669C25.4173 57.8925 30.0869 46.8075 23.4803 37.8159C21.5813 35.2326 18.8342 32.9657 17.2879 30.2686C15.0634 26.3838 15.5408 22.0145 16.3529 17.864C17.438 12.3504 19.4437 6.40477 25.6614 2.96105C32.1251 -0.618252 41.2981 -0.43748 49.319 0.842392C61.2373 2.74412 72.2874 6.62712 83.3774 10.2426L83.495 10.2805L84.9201 10.7433L85.5567 10.9476C86.4863 11.2477 87.4201 11.5441 88.3582 11.837L88.7 11.9418H88.7253L88.87 11.987L89.0038 12.0268L89.2299 12.0991C90.3873 12.4607 91.5502 12.8108 92.7185 13.1494H92.7421C92.9048 13.1982 93.0658 13.2452 93.2286 13.2904H93.2394C93.9062 13.4856 94.5741 13.6761 95.2433 13.8617L95.473 13.9267L95.5146 13.9376H95.5399C103.904 16.2587 112.549 18.0176 121.489 18.2761C132.769 18.6033 145.929 16.1629 153.419 9.82319C160.691 3.66245 174.362 3.19425 184.22 6.91636C193.624 10.4649 199.708 17.9779 199.249 25.4799C198.583 36.4004 185.929 44.7847 178.38 54.3385C174.863 58.7928 172.376 64.1436 174.797 68.9468C179.198 77.6727 196.598 79.6919 202.891 87.8213C205.968 91.8127 205.597 96.9178 202.289 100.759Z" fill="#FFC107"/>
<path d="M56.5621 78.0776L33.1596 106.9C28.7695 106.001 24.4664 104.72 20.2991 103.073C17.0437 101.757 13.9203 100.13 11.4137 98.1705L37.1131 77.0834L56.5621 78.0776Z" fill="#65617D"/>
<path d="M202.289 100.759C201.518 101.653 200.635 102.443 199.661 103.109C195.252 106.155 188.978 107.415 182.901 108.211C181.55 108.388 180.194 108.547 178.834 108.69L153.977 78.0776L173.434 77.0834L202.289 100.759Z" fill="#65617D"/>
<path d="M94.4891 78.6724L94.4475 79.4841L94.4348 79.7082L93.5486 96.8816V96.9033L93.4564 98.8846L93.4094 99.7722L92.8324 110.98C82.6883 110.902 72.5533 110.651 62.4345 110.127L75.2408 78.6814L94.4891 78.6724Z" fill="#65617D"/>
<path d="M153.339 110.093C152.116 110.125 150.893 110.156 149.669 110.185C141.063 110.396 132.449 110.608 123.836 110.761L113.746 78.6724H132.608L153.339 110.093Z" fill="#65617D"/>
<path opacity="0.1" d="M56.5621 78.0776L33.1596 106.9C28.7695 106.001 24.4664 104.72 20.2991 103.073C17.0437 101.757 13.9203 100.13 11.4137 98.1705L37.1131 77.0834L56.5621 78.0776Z" fill="black"/>
<path opacity="0.1" d="M202.289 100.759C201.518 101.653 200.635 102.443 199.661 103.109C195.252 106.155 188.978 107.415 182.901 108.211C181.55 108.388 180.194 108.547 178.834 108.69L153.977 78.0776L173.434 77.0834L202.289 100.759Z" fill="black"/>
<path opacity="0.1" d="M94.4891 78.6724L94.4475 79.4841L94.4348 79.7082L93.5486 96.8816V96.9033L93.4564 98.8846L93.4094 99.7722L92.8324 110.98C82.6883 110.902 72.5533 110.651 62.4345 110.127L75.2408 78.6814L94.4891 78.6724Z" fill="black"/>
<path opacity="0.1" d="M153.339 110.093C152.116 110.125 150.893 110.156 149.669 110.185C141.063 110.396 132.449 110.608 123.836 110.761L113.746 78.6724H132.608L153.339 110.093Z" fill="black"/>
<path d="M106.34 96.3538C105.818 96.3303 102.964 97.536 102.964 97.536C102.964 97.536 102.06 98.0404 99.7501 98.364C98.2418 98.5773 98.041 97.8506 98.0826 97.3209C98.0968 97.1471 98.1352 96.9762 98.1966 96.813V93.6078C98.1966 93.6078 102.899 90.739 103.26 90.5582C103.306 90.5381 103.355 90.5277 103.405 90.5275C103.986 90.504 105.65 91.0951 106.548 91.7296C107.541 92.4328 108.805 92.0026 108.805 92.0026C108.805 92.0026 111.258 90.0267 111.904 91.4729C111.942 91.5559 111.971 91.6425 111.992 91.7314C112.464 93.6422 106.865 96.3701 106.34 96.3538Z" fill="#3F3D56"/>
<path opacity="0.1" d="M98.1966 94.3779V93.6078C98.1966 93.6078 102.899 90.739 103.26 90.5582C103.306 90.5381 103.355 90.5276 103.405 90.5275C103.62 90.7498 103.814 90.9487 103.93 91.0698C104.271 91.4133 101.152 95.3252 98.1966 94.3779Z" fill="black"/>
<path d="M97.475 93.823L97.0427 91.8797C97.0427 91.8797 97.0427 90.2003 96.4459 89.8749C95.8491 89.5495 94.2232 78.2765 94.2232 78.2765C94.2232 78.2765 94.2775 75.7854 93.8434 75.46C93.4094 75.1347 93.8434 74.7767 93.8434 74.7767C93.8418 74.4181 93.7769 74.0626 93.6517 73.7264C93.5094 73.3608 93.4105 72.9798 93.3569 72.5912C93.3569 72.5912 93.5739 71.7777 93.3569 71.5626C93.205 71.4107 93.3985 71.1269 93.044 70.5593C92.8154 70.2221 92.5374 69.921 92.2193 69.6663C90.9913 68.6286 92.2031 56.8748 92.5358 53.8541C92.5865 53.4039 92.6172 53.149 92.6172 53.149H95.5109L95.8726 54.4488L96.4495 56.8513C96.4495 56.8513 96.8293 57.1026 96.8293 57.4279C96.8293 57.7533 99.1045 64.6299 99.1045 64.6299C99.2713 64.9069 99.4165 65.1964 99.5385 65.4958C99.5928 65.7128 100.081 66.0924 100.081 66.0924C99.9881 66.2964 99.9399 66.518 99.9399 66.7423C99.9399 66.9665 99.9881 67.1881 100.081 67.3921C100.405 68.0411 101.327 70.7491 101.002 72.0489C100.676 73.3486 100.296 73.4571 100.296 73.4571C100.296 73.4571 99.9726 74.4188 100.513 74.7767C101.054 75.1347 100.676 75.7854 100.676 75.7854L101.381 81.8522C101.381 81.8522 101.327 84.5638 102.139 85.5345C102.951 86.5053 103.06 88.8372 103.06 88.8372L102.448 89.0976L102.338 89.1464L102.302 89.1626C102.302 89.1626 103.548 90.4624 103.93 90.842C104.311 91.2216 100.616 95.7753 97.475 93.823Z" fill="#65617D"/>
<path opacity="0.1" d="M103.922 90.8474C103.595 91.8272 100.305 95.3668 97.475 93.6078L97.0427 91.6645C97.8168 91.0372 100.231 89.206 102.333 88.9349L102.297 88.9511L102.443 89.103L102.333 89.1518L102.297 89.168C102.297 89.168 103.543 90.4678 103.922 90.8474Z" fill="black"/>
<path d="M97.475 93.823L97.0427 91.8797C97.8168 91.2524 100.231 89.4212 102.333 89.15L102.297 89.1663C102.297 89.1663 103.543 90.466 103.924 90.8456C104.306 91.2253 100.616 95.7753 97.475 93.823Z" fill="#65617D"/>
<path d="M105.637 92.2719C105.712 92.2719 105.773 92.2112 105.773 92.1364C105.773 92.0615 105.712 92.0008 105.637 92.0008C105.562 92.0008 105.501 92.0615 105.501 92.1364C105.501 92.2112 105.562 92.2719 105.637 92.2719Z" fill="white"/>
<path d="M104.753 92.1381C104.827 92.1381 104.888 92.0774 104.888 92.0026C104.888 91.9277 104.827 91.867 104.753 91.867C104.678 91.867 104.617 91.9277 104.617 92.0026C104.617 92.0774 104.678 92.1381 104.753 92.1381Z" fill="white"/>
<path d="M106.396 92.4075C106.471 92.4075 106.532 92.3468 106.532 92.2719C106.532 92.197 106.471 92.1363 106.396 92.1363C106.322 92.1363 106.261 92.197 106.261 92.2719C106.261 92.3468 106.322 92.4075 106.396 92.4075Z" fill="white"/>
<path d="M103.814 92.0026C103.889 92.0026 103.95 91.9419 103.95 91.867C103.95 91.7921 103.889 91.7314 103.814 91.7314C103.739 91.7314 103.678 91.7921 103.678 91.867C103.678 91.9419 103.739 92.0026 103.814 92.0026Z" fill="white"/>
<path opacity="0.1" d="M106.34 96.3538C105.818 96.3303 102.964 97.536 102.964 97.536C102.964 97.536 102.06 98.0404 99.7501 98.364C98.2418 98.5773 98.041 97.8506 98.0826 97.3209C98.4645 97.4934 98.8954 97.5242 99.298 97.4077C100.327 97.1383 103.886 96.5689 103.886 96.5689C103.886 96.5689 106.237 95.712 106.306 95.2239L111.904 91.4729C111.942 91.5559 111.971 91.6425 111.992 91.7314C112.464 93.6422 106.865 96.37 106.34 96.3538Z" fill="black"/>
<path d="M103.7 53.8468H102.4V95.5999H103.7V53.8468Z" fill="#FFC107"/>
<path d="M103.6 54.3241C103.642 53.9058 103.833 53.5163 104.137 53.2263C104.442 52.9362 104.84 52.7647 105.26 52.7429C105.68 52.721 106.094 52.8502 106.427 53.1071C106.76 53.364 106.99 53.7316 107.075 54.1433C107.228 54.2439 107.372 54.3583 107.505 54.485C107.575 54.5492 107.662 54.5906 107.756 54.6033C107.85 54.616 107.946 54.5995 108.03 54.5561C108.114 54.5126 108.183 54.4443 108.227 54.3604C108.271 54.2765 108.288 54.1812 108.276 54.0873C108.275 54.077 108.275 54.0667 108.276 54.0565C108.216 53.637 108.067 53.2352 107.838 52.8785C107.609 52.5218 107.306 52.2185 106.949 51.9893C106.593 51.7601 106.191 51.6103 105.771 51.5501C105.352 51.4899 104.924 51.5207 104.517 51.6404C104.111 51.7601 103.734 51.9659 103.414 52.2439C103.094 52.5218 102.838 52.8654 102.663 53.2512C102.487 53.637 102.397 54.056 102.398 54.4798C102.399 54.9035 102.492 55.3221 102.669 55.707C102.84 55.1661 103.163 54.6859 103.6 54.3241Z" fill="#FFC107"/>
<path d="M104.186 94.1122H101.993V97.1727H104.186V94.1122Z" fill="#FFC107"/>
<path d="M92.6877 16.8697C92.2341 17.4571 91.8685 18.1075 91.6026 18.8004C90.7418 21.0709 91.3874 22.9003 91.3874 22.9003C91.3874 22.9003 83.5492 21.1667 84.3088 20.3008C84.7682 19.7748 85.1479 17.7519 85.3758 16.2406C85.5241 15.2554 85.6091 14.4871 85.6091 14.4871C85.6091 14.4871 95.0352 13.802 92.6877 16.8697Z" fill="#FABDBD"/>
<path d="M94.9394 98.1615C94.8426 98.693 94.5638 99.1743 94.1509 99.5227C93.554 100.027 87.8662 100.208 86.7105 99.7758C85.5549 99.3438 81.8709 99.1793 80.9485 99.1431C80.0261 99.107 79.6681 98.2591 79.4673 97.8433C79.4112 97.724 79.4528 97.4619 79.5469 97.1474C79.7766 96.3755 80.3119 95.2872 80.4258 95.1715C80.5127 95.0848 80.5958 94.7304 80.6519 94.4195C80.7007 94.1501 80.7333 93.9133 80.7333 93.9133C83.2056 95.5981 86.4573 92.7347 86.4573 92.7347C86.5792 92.6697 86.7183 92.6444 86.8552 92.6624C87.4773 92.7383 88.1555 93.5536 88.1555 93.9133C88.1555 94.3526 89.87 95.1787 89.87 95.1787C90.3583 95.7391 92.525 96.7858 92.525 96.7858C92.525 96.7858 94.0062 96.822 94.6573 97.3806C94.7664 97.4764 94.8495 97.5982 94.8988 97.7348C94.9481 97.8713 94.9621 98.0181 94.9394 98.1615Z" fill="#3F3D56"/>
<path opacity="0.1" d="M94.9394 98.1615C94.8426 98.693 94.5638 99.1742 94.1509 99.5227C93.554 100.027 87.8662 100.208 86.7105 99.7758C85.5549 99.3437 81.8709 99.1792 80.9485 99.1431C80.0261 99.1069 79.6681 98.2591 79.4673 97.8433C79.4112 97.724 79.4528 97.4619 79.5469 97.1474C80.3587 97.3465 81.1587 97.591 81.9432 97.8795C83.0989 98.3314 85.5006 98.9804 85.922 98.7834C85.9148 98.7888 91.6135 100.378 94.9394 98.1615Z" fill="black"/>
<path opacity="0.1" d="M93.044 70.5647C92.8154 70.2275 92.5374 69.9265 92.2193 69.6717C90.9913 68.6341 92.2031 56.8802 92.5358 53.8595C93.9556 53.78 94.9503 53.8071 95.0353 54.0204C95.3282 54.7525 93.4311 67.9218 93.044 70.5647Z" fill="black"/>
<path opacity="0.1" d="M86.8552 92.6696V93.2806C82.8764 97.3607 81.2849 95.9651 80.6519 94.4231C80.7007 94.1538 80.7333 93.9169 80.7333 93.9169C83.2056 95.6017 86.4573 92.7383 86.4573 92.7383C86.5796 92.6746 86.7187 92.6505 86.8552 92.6696Z" fill="black"/>
<path d="M94.7224 54.9749C94.4873 58.6048 92.657 71.0257 92.657 71.0257C92.657 71.0257 91.628 75.5739 91.4109 75.7366C91.1939 75.8993 89.8411 76.8213 89.8411 76.8213C89.8411 76.8213 89.7869 78.9345 89.3528 79.5329C88.9188 80.1312 88.756 81.6461 88.756 81.6461C88.756 81.6461 88.0525 84.6777 87.8354 86.1943C87.6184 87.711 86.8606 89.7682 86.8606 89.7682V93.0728C81.8582 98.2013 80.6266 94.678 80.3372 93.0872C80.2952 92.8674 80.2662 92.6452 80.2504 92.422L83.0681 75.31C83.0681 75.31 83.6631 74.4965 83.5546 74.0645C83.4461 73.6324 83.7716 73.0883 83.7716 73.0883L83.7626 72.1139C83.7626 72.1139 84.4227 71.248 83.7626 70.7599C83.1025 70.2719 83.7626 66.5895 83.7626 66.5895C83.7626 66.5895 83.0139 64.4781 83.4009 63.8779C83.7879 63.2778 83.4009 62.307 83.6704 61.7647C83.9398 61.2224 83.6704 61.7647 82.6956 60.3022C82.1856 59.5394 81.7515 58.1565 81.4513 57.0104C81.1764 55.9565 81.0154 55.1032 81.0154 55.1032C81.0154 55.1032 94.3986 53.2087 94.7242 54.0186C94.7655 54.336 94.7649 54.6576 94.7224 54.9749Z" fill="#65617D"/>
<path opacity="0.1" d="M92.6878 16.8697C92.2341 17.4571 91.8685 18.1075 91.6026 18.8004C91.0897 18.963 90.5547 19.0454 90.0165 19.0444C88.0886 19.0444 87.0198 17.6254 86.1101 16.0761C86.0685 16.0056 85.4138 16.313 85.3758 16.2406C85.5241 15.2554 85.6091 14.4871 85.6091 14.4871C85.6091 14.4871 95.0353 13.802 92.6878 16.8697Z" fill="black"/>
<path d="M95.2522 13.7026C95.254 14.9231 94.8296 16.1059 94.0523 17.0471C93.2751 17.9884 92.1936 18.6291 90.9944 18.8587C89.7952 19.0884 88.5534 18.8926 87.4831 18.3052C86.4128 17.7177 85.5811 16.7755 85.1314 15.6408C84.6817 14.5061 84.6422 13.2501 85.0196 12.0894C85.397 10.9287 86.1678 9.93605 87.199 9.2825C88.2302 8.62895 89.4572 8.35551 90.6685 8.50932C91.8798 8.66314 92.9994 9.23457 93.8344 10.1251C94.7444 11.0943 95.2513 12.3734 95.2522 13.7026Z" fill="#FABDBD"/>
<path opacity="0.1" d="M94.7224 54.9749C92.9536 55.2858 89.7398 55.895 89.4776 56.2602C89.1159 56.7645 86.4031 56.9091 84.7754 57.1261C83.8404 57.2508 82.4695 57.1477 81.4368 57.0104C81.1619 55.9565 81.001 55.1032 81.001 55.1032C81.001 55.1032 94.3842 53.2087 94.7097 54.0186C94.7558 54.3354 94.7601 54.6569 94.7224 54.9749Z" fill="black"/>
<path d="M95.8672 54.4542C95.8672 54.4542 89.8393 55.4286 89.4776 55.9347C89.1159 56.4409 86.4031 56.5837 84.7754 56.8007C83.1477 57.0176 80.2251 56.5476 80.0081 56.403C78.7421 55.5587 79.357 45.6452 79.8996 44.4159C80.4421 43.1866 80.2613 36.3299 79.7549 33.5858C79.2485 30.8417 80.0081 27.4124 80.0081 27.4124C80.0081 27.4124 80.7658 24.9937 80.623 24.4875C80.4801 23.9813 81.3464 22.9003 81.3464 22.9003C81.3464 22.9003 82.6829 20.6967 83.3683 20.3695C83.4939 20.3092 83.6051 20.2226 83.6944 20.1156C83.7836 20.0087 83.8488 19.8838 83.8856 19.7494C84.014 19.3499 83.9977 18.8456 84.0194 18.4208C84.0556 17.6977 84.7772 17.6977 84.7772 17.6977C86.8371 18.0212 91.6768 21.0546 91.6768 21.0546C91.4959 21.7397 92.6516 23.6903 92.6516 23.6903C92.6715 23.721 92.6877 23.7536 92.7058 23.7879C93.9718 26.1723 94.8924 33.4737 94.8924 33.4737C94.8924 33.4737 94.9557 36.9608 94.9448 39.5278C94.9448 40.8095 94.9141 41.8616 94.8544 42.1382C94.7495 42.6299 94.9575 44.913 95.1691 47.0859C95.3137 48.5881 95.4621 50.0361 95.5073 50.8026C95.6266 52.6845 95.8672 54.4542 95.8672 54.4542Z" fill="#FFC107"/>
<path opacity="0.1" d="M90.5935 44.49C90.5935 44.49 88.9658 48.3893 89.4016 48.9659C89.8375 49.5426 90.5935 44.49 90.5935 44.49Z" fill="black"/>
<path opacity="0.1" d="M92.6154 46.3665C92.6154 46.3665 90.7743 49.2588 91.4598 49.8319C92.1452 50.4049 92.6154 46.3665 92.6154 46.3665Z" fill="black"/>
<path opacity="0.1" d="M86.8552 91.9845V92.9589C81.8528 98.0874 80.6212 94.5641 80.3318 92.9733C81.2415 93.7543 83.3286 94.7268 86.8552 91.9845Z" fill="black"/>
<path d="M86.8552 92.093V93.0673C81.8528 98.1958 80.6212 94.6726 80.3318 93.0818C81.2415 93.8627 83.3286 94.8353 86.8552 92.093Z" fill="#65617D"/>
<path d="M86.2602 94.8642C86.3351 94.8642 86.3958 94.8035 86.3958 94.7286C86.3958 94.6538 86.3351 94.5931 86.2602 94.5931C86.1853 94.5931 86.1246 94.6538 86.1246 94.7286C86.1246 94.8035 86.1853 94.8642 86.2602 94.8642Z" fill="white"/>
<path d="M88.4793 96.2254C88.5542 96.2254 88.6149 96.1647 88.6149 96.0899C88.6149 96.015 88.5542 95.9543 88.4793 95.9543C88.4044 95.9543 88.3436 96.015 88.3436 96.0899C88.3436 96.1647 88.4044 96.2254 88.4793 96.2254Z" fill="white"/>
<path d="M87.6293 95.6668C87.7042 95.6668 87.7649 95.6061 87.7649 95.5313C87.7649 95.4564 87.7042 95.3957 87.6293 95.3957C87.5543 95.3957 87.4936 95.4564 87.4936 95.5313C87.4936 95.6061 87.5543 95.6668 87.6293 95.6668Z" fill="white"/>
<path d="M89.1665 96.6973C89.2414 96.6973 89.3022 96.6365 89.3022 96.5617C89.3022 96.4868 89.2414 96.4261 89.1665 96.4261C89.0916 96.4261 89.0309 96.4868 89.0309 96.5617C89.0309 96.6365 89.0916 96.6973 89.1665 96.6973Z" fill="white"/>
<path d="M86.9908 95.2619C87.0658 95.2619 87.1265 95.2012 87.1265 95.1263C87.1265 95.0514 87.0658 94.9907 86.9908 94.9907C86.9159 94.9907 86.8552 95.0514 86.8552 95.1263C86.8552 95.2012 86.9159 95.2619 86.9908 95.2619Z" fill="white"/>
<path opacity="0.1" d="M87.8843 60.1576C87.8843 60.1576 86.5785 63.4296 85.0304 63.5525C83.4823 63.6754 87.8843 60.1576 87.8843 60.1576Z" fill="black"/>
<path opacity="0.1" d="M88.1013 65.1415C88.1013 65.1415 86.0414 68.6431 85.4283 68.6792C84.8152 68.7154 88.1013 65.1415 88.1013 65.1415Z" fill="black"/>
<path opacity="0.1" d="M89.1665 76.9099C89.1665 76.9099 86.6129 78.2458 87.1952 78.356C87.7776 78.4663 89.1665 76.9099 89.1665 76.9099Z" fill="black"/>
<path opacity="0.1" d="M84.0918 76.9098C84.0918 76.9098 86.6581 75.8632 87.1084 75.8632C87.5587 75.8632 84.0918 76.9098 84.0918 76.9098Z" fill="black"/>
<path opacity="0.1" d="M98.079 72.6508C98.079 72.6508 99.8405 72.217 99.9129 72.6508C99.9852 73.0847 98.079 72.6508 98.079 72.6508Z" fill="black"/>
<path opacity="0.1" d="M99.7682 74.784C99.7682 74.784 98.2147 74.8165 98.4317 75.3263C98.6487 75.8361 99.7682 74.784 99.7682 74.784Z" fill="black"/>
<path opacity="0.1" d="M92.7058 24.0085C91.3711 23.486 89.0435 22.4791 87.9928 21.4541C86.942 20.4292 85.0141 20.0911 83.8856 19.9682C84.014 19.5687 83.9977 19.0643 84.0194 18.6395C84.0556 17.9164 84.7772 17.9164 84.7772 17.9164C86.8371 18.24 91.6768 21.2734 91.6768 21.2734C91.4959 21.9585 92.6516 23.909 92.6516 23.909C92.6715 23.9416 92.6877 23.9741 92.7058 24.0085Z" fill="black"/>
<path d="M92.7058 23.7915C91.3711 23.2691 89.0435 22.2622 87.9928 21.239C86.942 20.2158 85.0141 19.8742 83.8856 19.7513C84.014 19.3517 83.9977 18.8474 84.0194 18.4226C84.0556 17.6995 84.7772 17.6995 84.7772 17.6995C86.8371 18.0231 91.6768 21.0564 91.6768 21.0564C91.4959 21.7416 92.6516 23.6921 92.6516 23.6921C92.6715 23.7246 92.6877 23.7572 92.7058 23.7915Z" fill="#FFC107"/>
<path opacity="0.1" d="M95.1691 47.0896C93.0241 45.6976 90.0165 43.3367 90.0165 43.1903C90.0165 43.0095 88.7867 41.6736 88.7867 41.6736L86.3669 37.279L85.6091 35.4713L87.7794 33.1971L92.5123 36.2287L93.7783 38.539C94.1984 38.8369 94.5911 39.1714 94.9521 39.5387C94.9521 40.8203 94.9213 41.8724 94.8616 42.149C94.7495 42.6335 94.9575 44.9167 95.1691 47.0896Z" fill="black"/>
<path d="M85.7176 35.0302L86.3669 37.279L88.8989 41.2397C88.8989 41.2397 90.1269 42.5756 90.1269 42.7564C90.1269 42.9372 94.6482 46.4387 96.5562 47.4131C98.4643 48.3875 100.897 49.1883 101.078 49.8897C101.258 50.5911 102.344 55.8263 105.418 54.1288C108.493 52.4314 104.552 48.6044 104.552 48.6044L102.02 46.3664C102.02 46.3664 96.6177 42.1418 96.1584 40.7354C95.699 39.3289 93.8923 38.0997 93.8923 38.0997L92.6263 35.7876L87.8951 32.756L85.7176 35.0302Z" fill="#FABDBD"/>
<path opacity="0.1" d="M84.8134 23.1154C84.8134 23.1154 80.4077 25.1383 81.7804 28.3578C83.1531 31.5774 86.1499 37.5032 86.1499 37.5032C86.1499 37.5032 85.79 35.4333 86.5839 35.2525C87.3779 35.0718 92.7058 35.9594 92.7058 35.9594C92.7058 35.9594 91.2427 33.5551 91.4959 32.183C91.7491 30.8109 89.5825 21.9241 84.8134 23.1154Z" fill="black"/>
<path opacity="0.1" d="M85.2474 22.7919C85.2474 22.7919 80.8418 24.8129 82.2127 28.0216C83.5836 31.2303 86.5839 37.1705 86.5839 37.1705C86.5839 37.1705 86.2222 35.1025 87.018 34.9217C87.8138 34.741 92.8325 35.6792 92.8325 35.6792C92.8325 35.6792 91.6768 33.2243 91.9282 31.8522C92.1796 30.4801 90.0202 21.5988 85.2474 22.7919Z" fill="black"/>
<path d="M85.0304 22.8985C85.0304 22.8985 80.6248 24.9214 81.9975 28.1409C83.3701 31.3605 86.3669 37.2862 86.3669 37.2862C86.3669 37.2862 86.0052 35.2182 86.801 35.0374C87.5967 34.8566 92.6154 35.7949 92.6154 35.7949C92.6154 35.7949 91.4598 33.34 91.7111 31.9679C91.9625 30.5958 89.7995 21.7072 85.0304 22.8985Z" fill="#FFC107"/>
<path opacity="0.1" d="M93.8344 10.1251C93.2213 10.3276 92.5684 10.4451 92.0258 10.1396C91.6515 9.93166 91.3693 9.54119 90.9407 9.45985C90.5555 9.38573 90.1612 9.60808 89.9135 9.91178C89.6831 10.2314 89.5004 10.5828 89.3709 10.9548C89.0973 11.6049 88.7631 12.2277 88.3726 12.815C88.1302 13.1765 87.8083 13.5598 87.3743 13.5779C86.7793 13.605 86.3778 12.9488 85.8026 12.7897C84.3974 12.3974 85.2094 13.9448 85.4156 14.5287C85.6193 15.105 85.691 15.7197 85.6254 16.3274C85.579 16.3382 85.5318 16.3454 85.4843 16.3491C84.8438 15.2371 84.6335 13.9288 84.8934 12.6722C85.1532 11.4156 85.8651 10.2979 86.8942 9.5308C87.9234 8.76371 89.1982 8.40054 90.4773 8.51006C91.7563 8.61959 92.9508 9.19422 93.8344 10.1251Z" fill="black"/>
<path d="M85.705 12.6776C86.2783 12.8367 86.6798 13.4929 87.2748 13.4676C87.7107 13.4477 88.0326 13.0663 88.2731 12.7029C88.6637 12.1175 88.9979 11.4965 89.2714 10.8482C89.4009 10.4761 89.5837 10.1248 89.814 9.80513C90.0636 9.50143 90.456 9.27908 90.8412 9.3532C91.2608 9.43455 91.543 9.82502 91.9264 10.0329C92.61 10.4143 93.46 10.1378 94.1907 9.85213C94.5524 9.71475 94.9484 9.5159 95.0099 9.1435C95.0533 8.88138 94.9032 8.61745 94.9376 8.35352C94.972 8.08959 95.1673 7.90521 95.2993 7.68828C95.4313 7.47135 95.5073 7.15861 95.321 6.98326C95.1854 6.85672 94.9738 6.86576 94.8001 6.80249C94.3679 6.63437 94.2576 6.05409 93.8724 5.79378C93.4564 5.51358 92.9012 5.70159 92.3984 5.72509C91.675 5.75762 91.0004 5.425 90.3294 5.15927C89.6585 4.89353 88.8934 4.68926 88.2297 4.96765C87.8336 5.13577 87.5262 5.45212 87.1898 5.71966C86.5319 6.23743 85.7466 6.5684 84.9165 6.67776C84.5077 6.73199 84.061 6.74103 83.7391 6.99592C83.334 7.3177 83.2725 7.91063 83.3503 8.42222C83.428 8.93381 83.6089 9.43635 83.5673 9.94975C83.5022 10.765 82.8927 11.4357 82.6901 12.2275C82.6452 12.3538 82.6298 12.4887 82.6451 12.6219C82.6605 12.7551 82.7062 12.883 82.7788 12.9958C82.8991 13.1156 83.0377 13.2157 83.1893 13.2922C83.3835 13.4187 83.5475 13.5862 83.6697 13.783C83.7919 13.9798 83.8693 14.2011 83.8964 14.4311C83.9236 14.6643 83.8964 14.9011 83.9326 15.1325C84.0048 15.4864 84.2127 15.798 84.5118 16.0007C84.8109 16.2034 85.1775 16.2811 85.5332 16.2171C85.5979 15.6094 85.5263 14.995 85.3234 14.4185C85.11 13.8328 84.2997 12.2944 85.705 12.6776Z" fill="#7C5C5C"/>
<g opacity="0.1">
<path opacity="0.1" d="M94.14 6.05771C94.1451 6.06716 94.1514 6.07596 94.1587 6.08389L94.14 6.05771Z" fill="black"/>
<path opacity="0.1" d="M95.2776 7.65756C95.415 7.44244 95.4874 7.12608 95.2993 6.95254C95.2681 6.92434 95.2327 6.90117 95.1944 6.88385C95.1968 7.04346 95.1501 7.19996 95.0606 7.33217C94.9231 7.54729 94.7296 7.74433 94.6988 7.99741C94.6681 8.25049 94.8128 8.52346 94.7712 8.78558C94.7097 9.15978 94.3046 9.35682 93.9519 9.49421C93.2285 9.77802 92.3713 10.0564 91.6858 9.67498C91.3133 9.46529 91.0311 9.07663 90.6116 8.99528C90.2263 8.92116 89.8321 9.14351 89.5843 9.44721C89.3536 9.76665 89.1708 10.118 89.0417 10.4903C88.7674 11.1399 88.4332 11.7627 88.0434 12.3504C87.8011 12.712 87.481 13.0952 87.0451 13.1133C86.4501 13.1386 86.0486 12.4842 85.4735 12.3251C84.0682 11.9328 84.8803 13.4803 85.0865 14.0642C85.2907 14.6435 85.3624 15.2612 85.2962 15.8719C85.0617 15.9149 84.82 15.8962 84.5948 15.8176C84.3697 15.739 84.1689 15.6032 84.0122 15.4236C84.1429 15.6988 84.3604 15.9235 84.6312 16.0632C84.9021 16.203 85.2113 16.2501 85.5115 16.1973C85.5779 15.5897 85.5068 14.975 85.3035 14.3986C85.0973 13.8147 84.2853 12.2673 85.6905 12.6577C86.2656 12.8186 86.6671 13.473 87.2621 13.4477C87.6962 13.4296 88.0181 13.0464 88.2586 12.6849C88.6494 12.0967 88.9842 11.4734 89.2588 10.8229C89.3882 10.4508 89.571 10.0995 89.8013 9.77983C89.9177 9.62098 90.074 9.49569 90.2544 9.41664C90.4348 9.3376 90.6328 9.30761 90.8286 9.32971C91.2481 9.41106 91.5303 9.79972 91.9028 10.0076C92.5883 10.3908 93.4383 10.1125 94.1689 9.82683C94.5307 9.68945 94.9267 9.4924 94.9864 9.1182C95.0298 8.85608 94.8797 8.59216 94.9159 8.33003C94.952 8.06791 95.1401 7.87268 95.2776 7.65756Z" fill="black"/>
<path opacity="0.1" d="M82.9524 12.9307C82.8529 12.8656 82.7444 12.8096 82.6503 12.7373C82.6702 12.8179 82.7066 12.8936 82.757 12.9596C82.8781 13.0794 83.0173 13.1794 83.1694 13.2561C83.2973 13.3397 83.4119 13.4421 83.5094 13.5598C83.3831 13.3042 83.1908 13.087 82.9524 12.9307Z" fill="black"/>
</g>
<path opacity="0.1" d="M95.6863 12.768C95.6863 12.768 94.2124 11.734 93.3352 12.8493H92.8071C92.279 11.3327 89.6657 12.0359 89.6657 12.0359L86.1029 12.618L86.1698 12.8493L89.6657 12.5637C89.6657 12.5637 89.7471 13.9864 90.2209 14.4474C90.6947 14.9083 91.7238 14.6498 91.7238 14.6498C92.3459 14.5703 92.6444 13.5941 92.7547 13.1133L93.2647 13.1422C93.1725 13.6321 93.111 14.5884 93.9447 14.921C95.0841 15.3675 95.4458 14.3516 95.4458 14.3516C95.4458 14.3516 95.822 13.0392 95.6863 12.768Z" fill="black"/>
<path d="M95.6863 12.6559C95.6863 12.6559 94.2123 11.6219 93.3352 12.7373H92.8071C92.279 11.2206 89.6657 11.9238 89.6657 11.9238L86.1029 12.5077L86.1698 12.7373L89.6657 12.4535C89.6657 12.4535 89.7471 13.8743 90.2209 14.3353C90.6947 14.7963 91.7238 14.5378 91.7238 14.5378C92.3459 14.4582 92.6443 13.4821 92.7547 13.0012L93.2647 13.0301C93.1724 13.52 93.1109 14.4763 93.9447 14.8089C95.0823 15.2554 95.4349 14.2395 95.4349 14.2395C95.4349 14.2395 95.8219 12.9307 95.6863 12.6559Z" fill="#3F3D56"/>
<path d="M106.34 96.3538C105.818 96.3303 102.964 97.536 102.964 97.536C102.964 97.536 102.06 98.0404 99.7501 98.364C98.2418 98.5773 98.041 97.8506 98.0826 97.3209C98.0968 97.1471 98.1352 96.9762 98.1966 96.813V93.6078C98.1966 93.6078 102.899 90.739 103.26 90.5582C103.306 90.5381 103.355 90.5277 103.405 90.5275C103.986 90.504 105.65 91.0951 106.548 91.7296C107.541 92.4328 108.805 92.0026 108.805 92.0026C108.805 92.0026 111.258 90.0267 111.904 91.4729C111.942 91.5559 111.971 91.6425 111.992 91.7314C112.464 93.6422 106.865 96.3701 106.34 96.3538Z" fill="#3F3D56"/>
<path opacity="0.1" d="M98.1966 94.3779V93.6078C98.1966 93.6078 102.899 90.739 103.26 90.5582C103.306 90.5381 103.355 90.5276 103.405 90.5275C103.62 90.7498 103.814 90.9487 103.93 91.0698C104.271 91.4133 101.152 95.3252 98.1966 94.3779Z" fill="black"/>
<path d="M97.475 93.823L97.0427 91.8797C97.0427 91.8797 97.0427 90.2003 96.4459 89.8749C95.8491 89.5495 94.2232 78.2765 94.2232 78.2765C94.2232 78.2765 94.2775 75.7854 93.8434 75.46C93.4094 75.1347 93.8434 74.7767 93.8434 74.7767C93.8418 74.4181 93.7769 74.0626 93.6517 73.7264C93.5094 73.3608 93.4105 72.9798 93.3569 72.5912C93.3569 72.5912 93.5739 71.7777 93.3569 71.5626C93.205 71.4107 93.3985 71.1269 93.044 70.5593C92.8154 70.2221 92.5374 69.921 92.2193 69.6663C90.9913 68.6286 92.2031 56.8748 92.5358 53.8541C92.5865 53.4039 92.6172 53.149 92.6172 53.149H95.5109L95.8726 54.4488L96.4495 56.8513C96.4495 56.8513 96.8293 57.1026 96.8293 57.4279C96.8293 57.7533 99.1045 64.6299 99.1045 64.6299C99.2713 64.9069 99.4165 65.1964 99.5385 65.4958C99.5928 65.7128 100.081 66.0924 100.081 66.0924C99.9881 66.2964 99.9399 66.518 99.9399 66.7423C99.9399 66.9665 99.9881 67.1881 100.081 67.3921C100.405 68.0411 101.327 70.7491 101.002 72.0489C100.676 73.3486 100.296 73.4571 100.296 73.4571C100.296 73.4571 99.9726 74.4188 100.513 74.7767C101.054 75.1347 100.676 75.7854 100.676 75.7854L101.381 81.8522C101.381 81.8522 101.327 84.5638 102.139 85.5345C102.951 86.5053 103.06 88.8372 103.06 88.8372L102.448 89.0976L102.338 89.1464L102.302 89.1626C102.302 89.1626 103.548 90.4624 103.93 90.842C104.311 91.2216 100.616 95.7753 97.475 93.823Z" fill="#65617D"/>
<path opacity="0.1" d="M103.922 90.8474C103.595 91.8272 100.305 95.3668 97.475 93.6078L97.0427 91.6645C97.8168 91.0372 100.231 89.206 102.333 88.9349L102.297 88.9511L102.443 89.103L102.333 89.1518L102.297 89.168C102.297 89.168 103.543 90.4678 103.922 90.8474Z" fill="black"/>
<path d="M97.475 93.823L97.0427 91.8797C97.8168 91.2524 100.231 89.4212 102.333 89.15L102.297 89.1663C102.297 89.1663 103.543 90.466 103.924 90.8456C104.306 91.2253 100.616 95.7753 97.475 93.823Z" fill="#65617D"/>
<path d="M105.637 92.2719C105.712 92.2719 105.773 92.2112 105.773 92.1364C105.773 92.0615 105.712 92.0008 105.637 92.0008C105.562 92.0008 105.501 92.0615 105.501 92.1364C105.501 92.2112 105.562 92.2719 105.637 92.2719Z" fill="white"/>
<path d="M104.753 92.1381C104.827 92.1381 104.888 92.0774 104.888 92.0026C104.888 91.9277 104.827 91.867 104.753 91.867C104.678 91.867 104.617 91.9277 104.617 92.0026C104.617 92.0774 104.678 92.1381 104.753 92.1381Z" fill="white"/>
<path d="M106.396 92.4075C106.471 92.4075 106.532 92.3468 106.532 92.2719C106.532 92.197 106.471 92.1363 106.396 92.1363C106.322 92.1363 106.261 92.197 106.261 92.2719C106.261 92.3468 106.322 92.4075 106.396 92.4075Z" fill="white"/>
<path d="M103.814 92.0026C103.889 92.0026 103.95 91.9419 103.95 91.867C103.95 91.7921 103.889 91.7314 103.814 91.7314C103.739 91.7314 103.678 91.7921 103.678 91.867C103.678 91.9419 103.739 92.0026 103.814 92.0026Z" fill="white"/>
<path opacity="0.1" d="M106.34 96.3538C105.818 96.3303 102.964 97.536 102.964 97.536C102.964 97.536 102.06 98.0404 99.7501 98.364C98.2418 98.5773 98.041 97.8506 98.0826 97.3209C98.4645 97.4934 98.8954 97.5242 99.298 97.4077C100.327 97.1383 103.886 96.5689 103.886 96.5689C103.886 96.5689 106.237 95.712 106.306 95.2239L111.904 91.4729C111.942 91.5559 111.971 91.6425 111.992 91.7314C112.464 93.6422 106.865 96.37 106.34 96.3538Z" fill="black"/>
<path d="M103.7 53.8468H102.4V95.5999H103.7V53.8468Z" fill="#FFC107"/>
<path d="M103.6 54.3241C103.642 53.9058 103.833 53.5163 104.137 53.2263C104.442 52.9362 104.84 52.7647 105.26 52.7429C105.68 52.721 106.094 52.8502 106.427 53.1071C106.76 53.364 106.99 53.7316 107.075 54.1433C107.228 54.2439 107.372 54.3583 107.505 54.485C107.575 54.5492 107.662 54.5906 107.756 54.6033C107.85 54.616 107.946 54.5995 108.03 54.5561C108.114 54.5126 108.183 54.4443 108.227 54.3604C108.271 54.2765 108.288 54.1812 108.276 54.0873C108.275 54.077 108.275 54.0667 108.276 54.0565C108.216 53.637 108.067 53.2352 107.838 52.8785C107.609 52.5218 107.306 52.2185 106.949 51.9893C106.593 51.7601 106.191 51.6103 105.771 51.5501C105.352 51.4899 104.924 51.5207 104.517 51.6404C104.111 51.7601 103.734 51.9659 103.414 52.2439C103.094 52.5218 102.838 52.8654 102.663 53.2512C102.487 53.637 102.397 54.056 102.398 54.4798C102.399 54.9035 102.492 55.3221 102.669 55.707C102.84 55.1661 103.163 54.6859 103.6 54.3241Z" fill="#FFC107"/>
<path d="M104.186 94.1122H101.993V97.1727H104.186V94.1122Z" fill="#FFC107"/>
<path d="M92.6877 16.8697C92.2341 17.4571 91.8685 18.1075 91.6026 18.8004C90.7418 21.0709 91.3874 22.9003 91.3874 22.9003C91.3874 22.9003 83.5492 21.1667 84.3088 20.3008C84.7682 19.7748 85.1479 17.7519 85.3758 16.2406C85.5241 15.2554 85.6091 14.4871 85.6091 14.4871C85.6091 14.4871 95.0352 13.802 92.6877 16.8697Z" fill="#FABDBD"/>
<path d="M94.9394 98.1615C94.8426 98.693 94.5638 99.1743 94.1509 99.5227C93.554 100.027 87.8662 100.208 86.7105 99.7758C85.5549 99.3438 81.8709 99.1793 80.9485 99.1431C80.0261 99.107 79.6681 98.2591 79.4673 97.8433C79.4112 97.724 79.4528 97.4619 79.5469 97.1474C79.7766 96.3755 80.3119 95.2872 80.4258 95.1715C80.5127 95.0848 80.5958 94.7304 80.6519 94.4195C80.7007 94.1501 80.7333 93.9133 80.7333 93.9133C83.2056 95.5981 86.4573 92.7347 86.4573 92.7347C86.5792 92.6697 86.7183 92.6444 86.8552 92.6624C87.4773 92.7383 88.1555 93.5536 88.1555 93.9133C88.1555 94.3526 89.87 95.1787 89.87 95.1787C90.3583 95.7391 92.525 96.7858 92.525 96.7858C92.525 96.7858 94.0062 96.822 94.6573 97.3806C94.7664 97.4764 94.8495 97.5982 94.8988 97.7348C94.9481 97.8713 94.9621 98.0181 94.9394 98.1615Z" fill="#3F3D56"/>
<path opacity="0.1" d="M94.9394 98.1615C94.8426 98.693 94.5638 99.1742 94.1509 99.5227C93.554 100.027 87.8662 100.208 86.7105 99.7758C85.5549 99.3437 81.8709 99.1792 80.9485 99.1431C80.0261 99.1069 79.6681 98.2591 79.4673 97.8433C79.4112 97.724 79.4528 97.4619 79.5469 97.1474C80.3587 97.3465 81.1587 97.591 81.9432 97.8795C83.0989 98.3314 85.5006 98.9804 85.922 98.7834C85.9148 98.7888 91.6135 100.378 94.9394 98.1615Z" fill="black"/>
<path opacity="0.1" d="M93.044 70.5647C92.8154 70.2275 92.5374 69.9265 92.2193 69.6717C90.9913 68.6341 92.2031 56.8802 92.5358 53.8595C93.9556 53.78 94.9503 53.8071 95.0353 54.0204C95.3282 54.7525 93.4311 67.9218 93.044 70.5647Z" fill="black"/>
<path opacity="0.1" d="M86.8552 92.6696V93.2806C82.8764 97.3607 81.2849 95.9651 80.6519 94.4231C80.7007 94.1538 80.7333 93.9169 80.7333 93.9169C83.2056 95.6017 86.4573 92.7383 86.4573 92.7383C86.5796 92.6746 86.7187 92.6505 86.8552 92.6696Z" fill="black"/>
<path d="M94.7224 54.9749C94.4873 58.6048 92.657 71.0257 92.657 71.0257C92.657 71.0257 91.628 75.5739 91.4109 75.7366C91.1939 75.8993 89.8411 76.8213 89.8411 76.8213C89.8411 76.8213 89.7869 78.9345 89.3528 79.5329C88.9188 80.1312 88.756 81.6461 88.756 81.6461C88.756 81.6461 88.0525 84.6777 87.8354 86.1943C87.6184 87.711 86.8606 89.7682 86.8606 89.7682V93.0728C81.8582 98.2013 80.6266 94.678 80.3372 93.0872C80.2952 92.8674 80.2662 92.6452 80.2504 92.422L83.0681 75.31C83.0681 75.31 83.6631 74.4965 83.5546 74.0645C83.4461 73.6324 83.7716 73.0883 83.7716 73.0883L83.7626 72.1139C83.7626 72.1139 84.4227 71.248 83.7626 70.7599C83.1025 70.2719 83.7626 66.5895 83.7626 66.5895C83.7626 66.5895 83.0139 64.4781 83.4009 63.8779C83.7879 63.2778 83.4009 62.307 83.6704 61.7647C83.9398 61.2224 83.6704 61.7647 82.6956 60.3022C82.1856 59.5394 81.7515 58.1565 81.4513 57.0104C81.1764 55.9565 81.0154 55.1032 81.0154 55.1032C81.0154 55.1032 94.3986 53.2087 94.7242 54.0186C94.7655 54.336 94.7649 54.6576 94.7224 54.9749Z" fill="#65617D"/>
<path opacity="0.1" d="M92.6878 16.8697C92.2341 17.4571 91.8685 18.1075 91.6026 18.8004C91.0897 18.963 90.5547 19.0454 90.0165 19.0444C88.0886 19.0444 87.0198 17.6254 86.1101 16.0761C86.0685 16.0056 85.4138 16.313 85.3758 16.2406C85.5241 15.2554 85.6091 14.4871 85.6091 14.4871C85.6091 14.4871 95.0353 13.802 92.6878 16.8697Z" fill="black"/>
<path d="M95.2522 13.7026C95.254 14.9231 94.8296 16.1059 94.0523 17.0471C93.2751 17.9884 92.1936 18.6291 90.9944 18.8587C89.7952 19.0884 88.5534 18.8926 87.4831 18.3052C86.4128 17.7177 85.5811 16.7755 85.1314 15.6408C84.6817 14.5061 84.6422 13.2501 85.0196 12.0894C85.397 10.9287 86.1678 9.93605 87.199 9.2825C88.2302 8.62895 89.4572 8.35551 90.6685 8.50932C91.8798 8.66314 92.9994 9.23457 93.8344 10.1251C94.7444 11.0943 95.2513 12.3734 95.2522 13.7026Z" fill="#FABDBD"/>
<path opacity="0.1" d="M94.7224 54.9749C92.9536 55.2858 89.7398 55.895 89.4776 56.2602C89.1159 56.7645 86.4031 56.9091 84.7754 57.1261C83.8404 57.2508 82.4695 57.1477 81.4368 57.0104C81.1619 55.9565 81.001 55.1032 81.001 55.1032C81.001 55.1032 94.3842 53.2087 94.7097 54.0186C94.7558 54.3354 94.7601 54.6569 94.7224 54.9749Z" fill="black"/>
<path d="M95.8672 54.4542C95.8672 54.4542 89.8393 55.4286 89.4776 55.9347C89.1159 56.4409 86.4031 56.5837 84.7754 56.8007C83.1477 57.0176 80.2251 56.5476 80.0081 56.403C78.7421 55.5587 79.357 45.6452 79.8996 44.4159C80.4421 43.1866 80.2613 36.3299 79.7549 33.5858C79.2485 30.8417 80.0081 27.4124 80.0081 27.4124C80.0081 27.4124 80.7658 24.9937 80.623 24.4875C80.4801 23.9813 81.3464 22.9003 81.3464 22.9003C81.3464 22.9003 82.6829 20.6967 83.3683 20.3695C83.4939 20.3092 83.6051 20.2226 83.6944 20.1156C83.7836 20.0087 83.8488 19.8838 83.8856 19.7494C84.014 19.3499 83.9977 18.8456 84.0194 18.4208C84.0556 17.6977 84.7772 17.6977 84.7772 17.6977C86.8371 18.0212 91.6768 21.0546 91.6768 21.0546C91.4959 21.7397 92.6516 23.6903 92.6516 23.6903C92.6715 23.721 92.6877 23.7536 92.7058 23.7879C93.9718 26.1723 94.8924 33.4737 94.8924 33.4737C94.8924 33.4737 94.9557 36.9608 94.9448 39.5278C94.9448 40.8095 94.9141 41.8616 94.8544 42.1382C94.7495 42.6299 94.9575 44.913 95.1691 47.0859C95.3137 48.5881 95.4621 50.0361 95.5073 50.8026C95.6266 52.6845 95.8672 54.4542 95.8672 54.4542Z" fill="#FFC107"/>
<path opacity="0.1" d="M90.5935 44.49C90.5935 44.49 88.9658 48.3893 89.4016 48.9659C89.8375 49.5426 90.5935 44.49 90.5935 44.49Z" fill="black"/>
<path opacity="0.1" d="M92.6154 46.3665C92.6154 46.3665 90.7743 49.2588 91.4598 49.8319C92.1452 50.4049 92.6154 46.3665 92.6154 46.3665Z" fill="black"/>
<path opacity="0.1" d="M86.8552 91.9845V92.9589C81.8528 98.0874 80.6212 94.5641 80.3318 92.9733C81.2415 93.7543 83.3286 94.7268 86.8552 91.9845Z" fill="black"/>
<path d="M86.8552 92.093V93.0673C81.8528 98.1958 80.6212 94.6726 80.3318 93.0818C81.2415 93.8627 83.3286 94.8353 86.8552 92.093Z" fill="#65617D"/>
<path d="M86.2602 94.8642C86.3351 94.8642 86.3958 94.8035 86.3958 94.7286C86.3958 94.6538 86.3351 94.5931 86.2602 94.5931C86.1853 94.5931 86.1246 94.6538 86.1246 94.7286C86.1246 94.8035 86.1853 94.8642 86.2602 94.8642Z" fill="white"/>
<path d="M88.4793 96.2254C88.5542 96.2254 88.6149 96.1647 88.6149 96.0899C88.6149 96.015 88.5542 95.9543 88.4793 95.9543C88.4044 95.9543 88.3436 96.015 88.3436 96.0899C88.3436 96.1647 88.4044 96.2254 88.4793 96.2254Z" fill="white"/>
<path d="M87.6293 95.6668C87.7042 95.6668 87.7649 95.6061 87.7649 95.5313C87.7649 95.4564 87.7042 95.3957 87.6293 95.3957C87.5543 95.3957 87.4936 95.4564 87.4936 95.5313C87.4936 95.6061 87.5543 95.6668 87.6293 95.6668Z" fill="white"/>
<path d="M89.1665 96.6973C89.2414 96.6973 89.3022 96.6365 89.3022 96.5617C89.3022 96.4868 89.2414 96.4261 89.1665 96.4261C89.0916 96.4261 89.0309 96.4868 89.0309 96.5617C89.0309 96.6365 89.0916 96.6973 89.1665 96.6973Z" fill="white"/>
<path d="M86.9908 95.2619C87.0658 95.2619 87.1265 95.2012 87.1265 95.1263C87.1265 95.0514 87.0658 94.9907 86.9908 94.9907C86.9159 94.9907 86.8552 95.0514 86.8552 95.1263C86.8552 95.2012 86.9159 95.2619 86.9908 95.2619Z" fill="white"/>
<path opacity="0.1" d="M87.8843 60.1576C87.8843 60.1576 86.5785 63.4296 85.0304 63.5525C83.4823 63.6754 87.8843 60.1576 87.8843 60.1576Z" fill="black"/>
<path opacity="0.1" d="M88.1013 65.1415C88.1013 65.1415 86.0414 68.6431 85.4283 68.6792C84.8152 68.7154 88.1013 65.1415 88.1013 65.1415Z" fill="black"/>
<path opacity="0.1" d="M89.1665 76.9099C89.1665 76.9099 86.6129 78.2458 87.1952 78.356C87.7776 78.4663 89.1665 76.9099 89.1665 76.9099Z" fill="black"/>
<path opacity="0.1" d="M84.0918 76.9098C84.0918 76.9098 86.6581 75.8632 87.1084 75.8632C87.5587 75.8632 84.0918 76.9098 84.0918 76.9098Z" fill="black"/>
<path opacity="0.1" d="M98.079 72.6508C98.079 72.6508 99.8405 72.217 99.9129 72.6508C99.9852 73.0847 98.079 72.6508 98.079 72.6508Z" fill="black"/>
<path opacity="0.1" d="M99.7682 74.784C99.7682 74.784 98.2147 74.8165 98.4317 75.3263C98.6487 75.8361 99.7682 74.784 99.7682 74.784Z" fill="black"/>
<path opacity="0.1" d="M92.7058 24.0085C91.3711 23.486 89.0435 22.4791 87.9928 21.4541C86.942 20.4292 85.0141 20.0911 83.8856 19.9682C84.014 19.5687 83.9977 19.0643 84.0194 18.6395C84.0556 17.9164 84.7772 17.9164 84.7772 17.9164C86.8371 18.24 91.6768 21.2734 91.6768 21.2734C91.4959 21.9585 92.6516 23.909 92.6516 23.909C92.6715 23.9416 92.6877 23.9741 92.7058 24.0085Z" fill="black"/>
<path d="M92.7058 23.7915C91.3711 23.2691 89.0435 22.2622 87.9928 21.239C86.942 20.2158 85.0141 19.8742 83.8856 19.7513C84.014 19.3517 83.9977 18.8474 84.0194 18.4226C84.0556 17.6995 84.7772 17.6995 84.7772 17.6995C86.8371 18.0231 91.6768 21.0564 91.6768 21.0564C91.4959 21.7416 92.6516 23.6921 92.6516 23.6921C92.6715 23.7246 92.6877 23.7572 92.7058 23.7915Z" fill="#FFC107"/>
<path opacity="0.1" d="M95.1691 47.0896C93.0241 45.6976 90.0165 43.3367 90.0165 43.1903C90.0165 43.0095 88.7867 41.6736 88.7867 41.6736L86.3669 37.279L85.6091 35.4713L87.7794 33.1971L92.5123 36.2287L93.7783 38.539C94.1984 38.8369 94.5911 39.1714 94.9521 39.5387C94.9521 40.8203 94.9213 41.8724 94.8616 42.149C94.7495 42.6335 94.9575 44.9167 95.1691 47.0896Z" fill="black"/>
<path d="M85.7176 35.0302L86.3669 37.279L88.8989 41.2397C88.8989 41.2397 90.1269 42.5756 90.1269 42.7564C90.1269 42.9372 94.6482 46.4387 96.5562 47.4131C98.4643 48.3875 100.897 49.1883 101.078 49.8897C101.258 50.5911 102.344 55.8263 105.418 54.1288C108.493 52.4314 104.552 48.6044 104.552 48.6044L102.02 46.3664C102.02 46.3664 96.6177 42.1418 96.1584 40.7354C95.699 39.3289 93.8923 38.0997 93.8923 38.0997L92.6263 35.7876L87.8951 32.756L85.7176 35.0302Z" fill="#FABDBD"/>
<path opacity="0.1" d="M84.8134 23.1154C84.8134 23.1154 80.4077 25.1383 81.7804 28.3578C83.1531 31.5774 86.1499 37.5032 86.1499 37.5032C86.1499 37.5032 85.79 35.4333 86.5839 35.2525C87.3779 35.0718 92.7058 35.9594 92.7058 35.9594C92.7058 35.9594 91.2427 33.5551 91.4959 32.183C91.7491 30.8109 89.5825 21.9241 84.8134 23.1154Z" fill="black"/>
<path opacity="0.1" d="M85.2474 22.7919C85.2474 22.7919 80.8418 24.8129 82.2127 28.0216C83.5836 31.2303 86.5839 37.1705 86.5839 37.1705C86.5839 37.1705 86.2222 35.1025 87.018 34.9217C87.8138 34.741 92.8325 35.6792 92.8325 35.6792C92.8325 35.6792 91.6768 33.2243 91.9282 31.8522C92.1796 30.4801 90.0202 21.5988 85.2474 22.7919Z" fill="black"/>
<path d="M85.0304 22.8985C85.0304 22.8985 80.6248 24.9214 81.9975 28.1409C83.3701 31.3605 86.3669 37.2862 86.3669 37.2862C86.3669 37.2862 86.0052 35.2182 86.801 35.0374C87.5967 34.8566 92.6154 35.7949 92.6154 35.7949C92.6154 35.7949 91.4598 33.34 91.7111 31.9679C91.9625 30.5958 89.7995 21.7072 85.0304 22.8985Z" fill="#FFC107"/>
<path opacity="0.1" d="M93.8344 10.1251C93.2213 10.3276 92.5684 10.4451 92.0258 10.1396C91.6515 9.93166 91.3693 9.54119 90.9407 9.45985C90.5555 9.38573 90.1612 9.60808 89.9135 9.91178C89.6831 10.2314 89.5004 10.5828 89.3709 10.9548C89.0973 11.6049 88.7631 12.2277 88.3726 12.815C88.1302 13.1765 87.8083 13.5598 87.3743 13.5779C86.7793 13.605 86.3778 12.9488 85.8026 12.7897C84.3974 12.3974 85.2094 13.9448 85.4156 14.5287C85.6193 15.105 85.691 15.7197 85.6254 16.3274C85.579 16.3382 85.5318 16.3454 85.4843 16.3491C84.8438 15.2371 84.6335 13.9288 84.8934 12.6722C85.1532 11.4156 85.8651 10.2979 86.8942 9.5308C87.9234 8.76371 89.1982 8.40054 90.4773 8.51006C91.7563 8.61959 92.9508 9.19422 93.8344 10.1251Z" fill="black"/>
<path d="M85.705 12.6776C86.2783 12.8367 86.6798 13.4929 87.2748 13.4676C87.7107 13.4477 88.0326 13.0663 88.2731 12.7029C88.6637 12.1175 88.9979 11.4965 89.2714 10.8482C89.4009 10.4761 89.5837 10.1248 89.814 9.80513C90.0636 9.50143 90.456 9.27908 90.8412 9.3532C91.2608 9.43455 91.543 9.82502 91.9264 10.0329C92.61 10.4143 93.46 10.1378 94.1907 9.85213C94.5524 9.71475 94.9484 9.5159 95.0099 9.1435C95.0533 8.88138 94.9032 8.61745 94.9376 8.35352C94.972 8.08959 95.1673 7.90521 95.2993 7.68828C95.4313 7.47135 95.5073 7.15861 95.321 6.98326C95.1854 6.85672 94.9738 6.86576 94.8001 6.80249C94.3679 6.63437 94.2576 6.05409 93.8724 5.79378C93.4564 5.51358 92.9012 5.70159 92.3984 5.72509C91.675 5.75762 91.0004 5.425 90.3294 5.15927C89.6585 4.89353 88.8934 4.68926 88.2297 4.96765C87.8336 5.13577 87.5262 5.45212 87.1898 5.71966C86.5319 6.23743 85.7466 6.5684 84.9165 6.67776C84.5077 6.73199 84.061 6.74103 83.7391 6.99592C83.334 7.3177 83.2725 7.91063 83.3503 8.42222C83.428 8.93381 83.6089 9.43635 83.5673 9.94975C83.5022 10.765 82.8927 11.4357 82.6901 12.2275C82.6452 12.3538 82.6298 12.4887 82.6451 12.6219C82.6605 12.7551 82.7062 12.883 82.7788 12.9958C82.8991 13.1156 83.0377 13.2157 83.1893 13.2922C83.3835 13.4187 83.5475 13.5862 83.6697 13.783C83.7919 13.9798 83.8693 14.2011 83.8964 14.4311C83.9236 14.6643 83.8964 14.9011 83.9326 15.1325C84.0048 15.4864 84.2127 15.798 84.5118 16.0007C84.8109 16.2034 85.1775 16.2811 85.5332 16.2171C85.5979 15.6094 85.5263 14.995 85.3234 14.4185C85.11 13.8328 84.2997 12.2944 85.705 12.6776Z" fill="#7C5C5C"/>
<g opacity="0.1">
<path opacity="0.1" d="M94.14 6.05771C94.1451 6.06716 94.1514 6.07596 94.1587 6.08389L94.14 6.05771Z" fill="black"/>
<path opacity="0.1" d="M95.2776 7.65756C95.415 7.44244 95.4874 7.12608 95.2993 6.95254C95.2681 6.92434 95.2327 6.90117 95.1944 6.88385C95.1968 7.04346 95.1501 7.19996 95.0606 7.33217C94.9231 7.54729 94.7296 7.74433 94.6988 7.99741C94.6681 8.25049 94.8128 8.52346 94.7712 8.78558C94.7097 9.15978 94.3046 9.35682 93.9519 9.49421C93.2285 9.77802 92.3713 10.0564 91.6858 9.67498C91.3133 9.46529 91.0311 9.07663 90.6116 8.99528C90.2263 8.92116 89.8321 9.14351 89.5843 9.44721C89.3536 9.76665 89.1708 10.118 89.0417 10.4903C88.7674 11.1399 88.4332 11.7627 88.0434 12.3504C87.8011 12.712 87.481 13.0952 87.0451 13.1133C86.4501 13.1386 86.0486 12.4842 85.4735 12.3251C84.0682 11.9328 84.8803 13.4803 85.0865 14.0642C85.2907 14.6435 85.3624 15.2612 85.2962 15.8719C85.0617 15.9149 84.82 15.8962 84.5948 15.8176C84.3697 15.739 84.1689 15.6032 84.0122 15.4236C84.1429 15.6988 84.3604 15.9235 84.6312 16.0632C84.9021 16.203 85.2113 16.2501 85.5115 16.1973C85.5779 15.5897 85.5068 14.975 85.3035 14.3986C85.0973 13.8147 84.2853 12.2673 85.6905 12.6577C86.2656 12.8186 86.6671 13.473 87.2621 13.4477C87.6962 13.4296 88.0181 13.0464 88.2586 12.6849C88.6494 12.0967 88.9842 11.4734 89.2588 10.8229C89.3882 10.4508 89.571 10.0995 89.8013 9.77983C89.9177 9.62098 90.074 9.49569 90.2544 9.41664C90.4348 9.3376 90.6328 9.30761 90.8286 9.32971C91.2481 9.41106 91.5303 9.79972 91.9028 10.0076C92.5883 10.3908 93.4383 10.1125 94.1689 9.82683C94.5307 9.68945 94.9267 9.4924 94.9864 9.1182C95.0298 8.85608 94.8797 8.59216 94.9159 8.33003C94.952 8.06791 95.1401 7.87268 95.2776 7.65756Z" fill="black"/>
<path opacity="0.1" d="M82.9524 12.9307C82.8529 12.8656 82.7444 12.8096 82.6503 12.7373C82.6702 12.8179 82.7066 12.8936 82.757 12.9596C82.8781 13.0794 83.0173 13.1794 83.1694 13.2561C83.2973 13.3397 83.4119 13.4421 83.5094 13.5598C83.3831 13.3042 83.1908 13.087 82.9524 12.9307Z" fill="black"/>
</g>
<path opacity="0.1" d="M95.6863 12.768C95.6863 12.768 94.2124 11.734 93.3352 12.8493H92.8071C92.279 11.3327 89.6657 12.0359 89.6657 12.0359L86.1029 12.618L86.1698 12.8493L89.6657 12.5637C89.6657 12.5637 89.7471 13.9864 90.2209 14.4474C90.6947 14.9083 91.7238 14.6498 91.7238 14.6498C92.3459 14.5703 92.6444 13.5941 92.7547 13.1133L93.2647 13.1422C93.1725 13.6321 93.111 14.5884 93.9447 14.921C95.0841 15.3675 95.4458 14.3516 95.4458 14.3516C95.4458 14.3516 95.822 13.0392 95.6863 12.768Z" fill="black"/>
<path d="M95.6863 12.6559C95.6863 12.6559 94.2123 11.6219 93.3352 12.7373H92.8071C92.279 11.2206 89.6657 11.9238 89.6657 11.9238L86.1029 12.5077L86.1698 12.7373L89.6657 12.4535C89.6657 12.4535 89.7471 13.8743 90.2209 14.3353C90.6947 14.7963 91.7238 14.5378 91.7238 14.5378C92.3459 14.4582 92.6443 13.4821 92.7547 13.0012L93.2647 13.0301C93.1724 13.52 93.1109 14.4763 93.9447 14.8089C95.0823 15.2554 95.4349 14.2395 95.4349 14.2395C95.4349 14.2395 95.8219 12.9307 95.6863 12.6559Z" fill="#3F3D56"/>
<path opacity="0.1" d="M177.313 75.6517C178.993 75.6517 180.355 75.4218 180.355 75.1383C180.355 74.8547 178.993 74.6249 177.313 74.6249C175.633 74.6249 174.271 74.8547 174.271 75.1383C174.271 75.4218 175.633 75.6517 177.313 75.6517Z" fill="#FFC107"/>
<path d="M175.269 72.7484C175.269 72.7484 177.004 72.696 177.526 72.3236C178.049 71.9512 180.196 71.5065 180.324 72.1031C180.453 72.6996 182.932 75.0714 180.974 75.0876C179.015 75.1039 176.423 74.7839 175.901 74.4658C175.378 74.1476 175.269 72.7484 175.269 72.7484Z" fill="#A8A8A8"/>
<path opacity="0.2" d="M181.008 74.8798C179.049 74.896 176.458 74.5761 175.944 74.2579C175.548 74.0157 175.389 73.148 175.336 72.7466H175.278C175.278 72.7466 175.389 74.1458 175.91 74.464C176.43 74.7821 179.024 75.1021 180.983 75.0858C181.549 75.0858 181.744 74.8798 181.733 74.5833C181.644 74.7641 181.429 74.8762 181.008 74.8798Z" fill="black"/>
<path opacity="0.1" d="M20.3823 80.6103C23.4676 80.6103 25.9688 80.1878 25.9688 79.6666C25.9688 79.1455 23.4676 78.723 20.3823 78.723C17.2969 78.723 14.7957 79.1455 14.7957 79.6666C14.7957 80.1878 17.2969 80.6103 20.3823 80.6103Z" fill="#FFC107"/>
<path d="M16.6277 75.2793C16.6277 75.2793 19.8162 75.1817 20.7765 74.4965C21.7369 73.8114 25.6777 72.9979 25.9164 74.0934C26.1551 75.1889 30.7 79.5419 27.1082 79.5762C23.5165 79.6106 18.7473 79.0158 17.7888 78.432C16.8303 77.8481 16.6277 75.2793 16.6277 75.2793Z" fill="#A8A8A8"/>
<path opacity="0.2" d="M27.1715 79.1948C23.5743 79.2237 18.8124 78.6344 17.8539 78.0505C17.1305 77.6058 16.8321 76.0114 16.7344 75.2757H16.6277C16.6277 75.2757 16.8303 77.8444 17.7888 78.4283C18.7473 79.0122 23.5092 79.6016 27.1082 79.5726C28.1463 79.5636 28.5062 79.1948 28.4863 78.6471C28.3489 78.9815 27.9456 79.1804 27.1715 79.1948Z" fill="black"/>
</g>
<defs>
<clipPath id="clip0">
<rect width="205" height="111" fill="white"/>
</clipPath>
</defs>
</svg>
