<svg width="80" height="80" viewBox="0 0 80 80" fill="none" xmlns="http://www.w3.org/2000/svg">
<g filter="url(#filter0_d)">
<circle cx="40" cy="36" r="36" fill="#F44336"/>
<path d="M40 40.5C43.735 40.5 46.7275 37.485 46.7275 33.75L46.75 20.25C46.75 16.515 43.735 13.5 40 13.5C36.265 13.5 33.25 16.515 33.25 20.25V33.75C33.25 37.485 36.265 40.5 40 40.5ZM51.925 33.75C51.925 40.5 46.21 45.225 40 45.225C33.79 45.225 28.075 40.5 28.075 33.75H24.25C24.25 41.4225 30.37 47.7675 37.75 48.87V56.25H42.25V48.87C49.63 47.79 55.75 41.445 55.75 33.75H51.925Z" fill="white"/>
</g>
<defs>
<filter id="filter0_d" x="0" y="0" width="80" height="80" filterUnits="userSpaceOnUse" color-interpolation-filters="sRGB">
<feFlood flood-opacity="0" result="BackgroundImageFix"/>
<feColorMatrix in="SourceAlpha" type="matrix" values="0 0 0 0 0 0 0 0 0 0 0 0 0 0 0 0 0 0 127 0"/>
<feOffset dy="4"/>
<feGaussianBlur stdDeviation="2"/>
<feColorMatrix type="matrix" values="0 0 0 0 0 0 0 0 0 0 0 0 0 0 0 0 0 0 0.25 0"/>
<feBlend mode="normal" in2="BackgroundImageFix" result="effect1_dropShadow"/>
<feBlend mode="normal" in="SourceGraphic" in2="effect1_dropShadow" result="shape"/>
</filter>
</defs>
</svg>
